<mxfile host="65bd71144e">
    <diagram id="HIP3nbAZw_EuaXWnEj3U" name="Page-1">
        <mxGraphModel dx="558" dy="415" grid="1" gridSize="10" guides="1" tooltips="1" connect="1" arrows="1" fold="1" page="1" pageScale="1" pageWidth="850" pageHeight="1100" math="0" shadow="0">
            <root>
                <mxCell id="0"/>
                <mxCell id="1" parent="0"/>
                <mxCell id="7" value="http://ics2o.mths.ca" style="swimlane;whiteSpace=wrap;html=1;" parent="1" vertex="1">
                    <mxGeometry x="40" y="40" width="760" height="480" as="geometry"/>
                </mxCell>
                <mxCell id="8" value="" style="shape=image;verticalLabelPosition=bottom;labelBackgroundColor=default;verticalAlign=top;aspect=fixed;imageAspect=0;image=data:image/png,iVBORw0KGgoAAAANSUhEUgAAAUAAAAFACAYAAADNkKWqAAAAAXNSR0IArs4c6QAAIABJREFUeAHsvQn0ZUVxPz4n53dyPIa57wtxC5ERFZegznszgCwqzgAOmwiIyi4z731nWGXfZ4D5DiIim4AIyKIom7LIKiLC6F8NolFjiBolxrjFGENQkSBOOP23qvrTXd237n33fbfZ3jvnnepbXVVdXX27bnfVXWbMGP6GFpgGCyyfN+P/Hbj1RsWSLTacNfr6DWcv7szcbrQzMm+0U+zW67RGu+2Z53Y7rVu7neLRbrv1k2679USvXfym2y5+3O20vtxtt67qzmkdtrAz0nn35jP+chpUHjYxtMDQAkMLVFvgiM1fuEFvbrFZb84G23fbrfd0O8Wx5Mh6c1rXLprTur3bbj3Ua7e+s6hT/LTXbv2u2y6e63YKF/8tVQa+D65NdK0nRzvFg91OcXG33Tp1tN06ddGckbN77eLCXqe4fLRdXNGl8uyZJ3bnzHxHd87zN67uxbBmaIGhBdZ7C9AKbckWGz+fVmkHz97gRYvbM19NK7RuZ+bCXrsY63VaV3c7xT29dvFor138pNtpPdXtFM/1OoXrdVr8J8emjwk/GE7kiDxxiJBdjUMbmjfHkeNtfbfXLpZ139B6xXo/2EMDDC2wPluAVkS9TnHAonZx2aL2zJXddvGTXrv1ZLdTPNttF65HqywPdZlwwGuoy6CfLBzJwV/LHjeu01rVaxcP0IqVVrDr83kw7PvQAuuNBXhF126dSjG2nl+5sZOi1RucHW1PqZzgWh5XdkS02ssd0dqE67Zbz1B8kVaGS94w87Xrzckw7OjQAuu6BZbPmPEXi2a35vbmFGd2261vUfyNt6dwdljN0bYVuOAAbRw7R3aQqh68dVC3UUen6yweCwceXwcdxZGneqIu9Bc2EBlkn6/0Zhf7DZMs6/rsGPZvnbUArfQWdVrn99qtn9OEH/5lBTuIHXqzi58umlOc2Zu9weuHznCdnSrDjq1LFuBMbKe4RxITSAjEBEVMTmgc6AaF5WRHlK9lWW3lyQ3IKtySLTZ0J81/qTtvn9e5Kxa90V3Z3dp9cJ/XuaO3e7FPtNjy0kQJtT8ROq0/hQdaz3Tbxa96neLxXqf4Zm92cV9vTnEZJYcWdkY2XZfOoWFfhhZYqyxw2OwNXtRrz+z22i26d45uDwl/cgo4Rpkh0bVlklM96qpwkJHArC2u8zJH57TcoVtu5I7ffmO3dOeXu3P2+jv34QM67urF27qbj93B3bN0d/fwB/Zxj1x0gPvmpQe771y+0P3LdYe6X912vHvmwTPdqpVjbtXKFe7/Vq5wq7405v7vSyvcsw8tdz+/5Rj35fPe4z5x+Fvcij1e7Y7a5kVudM5I0J/6QW0vnjvilszdMKlLdCe7WPpX4ZWtSnI6Ldo2k+0PGyZU1qqpM1R2bbPAki1mvoBuGu52WqePtluf7rZbP+x2Wv6+Ol6pyHaXHR/fK0erl0nDwakt330zd+G+s93HRrdhh3bfGW93Xz1/P/fYx3rspH5732nuTw8vZ0cGJ0YOTRzbWHRs7OjI2UWcRWfjhO/39y91v7nzJPfrO050/33XyY7a/sMDy9wfv3iWe+r+pe5HnzjM3Xri29wJb/1byWyrpA3igXxPogoVcKZ5PHQdunG7dd7o7I1euradW0N9hxZYIy1AT014h/etbqeg2zdke4fAP2CWHODJ3QBHq6b3bfsi98F3bs7bTVpd0SrtjlN2dp87cw/3lfP3dd+/ZjE7mLg6E+cDh7Y2wGcfOst956ML3UcXbuUO2+qvY9InTYIEPJxjRbIk0Ol6lCmzTDeC09Mua+RJNVRqaIE13QKUvV3U5icpVuXB+7CqC6sWtfoLuOrkBzm90xdsyiujx68/PKzW9EordWpx9ZbiZataxtXhx+M8rfarcDk+Px7jFSJtuz99/I68RecQQAO7wSliPMjhoWzCTuFG261vLWqPnN2d09ppYWdkZE0/74b6DS2wWi2wcIuZr+XnYdsUW8qC8X5rG/F1gf5y3fLdX+XuOHln95Mbj5Jt55dWuP/zMTaKs8W/xN3i8bpLR86bVriXH7Ilxw1hW+vpFUmslO0qPBFv8/JYPtvtFN/stlvn9trFG1friTZsfGiBNckC/IKAdusK2uZWBujZAcbEhhGQD0kPqqOJuWznV7gvrNiL42RIKJBjo9UeQ+UAV3knCFhFR3E9xPaCk/S4cAyHqhIZXGe0y/JIJ+jiabh94CCvAgad+/DW0f33nSe7u07bNa4KB7S3OR4+4YTxYBokYNrFD3rt4ih69HBNOheHugwtMC0WWDhvxvMWdordFs1u3dhtF8+E1QfH+SR5wTifyKAyb8P4KY1YDjhV/6F3v959+/KFfnvrnR0lG7405sgJBAdYh+PEReQlB8XbXXJCSGowjpxXxHEblOCowIWttuK1cGijqTyhE11SeakuVj9S3jH3H7cex/FP2iZT3PBD73q9W/72V7lTd5zlDn/jC/hCgy0wrQxx0RoPrtcpnqAXSCzc/K9eMi0n3rCRoQVWlwXoak9PGnQ7M2/ttovfxcB5+sQC8E0gO8B24Y59y9+4Tx711rDF1bE5Xk3B2fnsK3AWncYFh6Gytkn9WoL/P0PPpjjd3z+tHHM/ueEoThbx/YlIRBkQY6PHEThAqvPlZ3rt4jLaDayu83PY7tACU2IBSmqMdorre+3iKTrZ07+/VSXB1+NoNXjS/E3cpQfPdXcv3d398OOHuj8+dJa/1QSBf0CdlLBwOjGBekDNa9H1w+l6yNKyUd8UB3pA4mvKO1666jae+vxS98DYnjwWvApMxjAfZxxbY4s6uhC2aDdw9fCtNVMyFYdCp8sC9CwuZf/8e+v8kwwUw4sB87DtNXCoA6SbiimJ8dhVPb7fjVYlHFcz42Soky1sNZ2uR7kp79pIhz72g4P1jW6z+dqF+7tz9nytH2c9xigD4uZzOq7G0Zt56N2GdP/ndJ2zw3aGFpiwBei9evSqpd7s1jf1NgfboIhDHE+u/qhniJcStFv81APdw/anh+WGYU4a6KQDAv/AMSzTssNMaCRux84ReB+3S9rwK6wcZx3TaszC5ziLzsLlfHQ8MbqyXew2LDoLl/aXbPzTm4/mC9XY218lT6PELS62unJTttoy45zQMJZbv6GnfeiCOuGTcyhgaIGpsgA7vtkj7+22ix+KE4ODi1seWs3xie2hLqMOuNPftqn7+sUHsuPDai9C2c4hjifQOwdOcsgKhpwFO4wSDvWATeVhGytbULRfbkPoUA8o+pR5qV+xb8K7NuLQT8Df3Xea+9ZHDnG3HLcjX8jo0b3o2GQFSMeVOJwnfFP7zJX0ooupOn+HcocWGLcFKJvba498T9/mwA6NTmD1T3D+FglxfJHu1J1e5r507rv4cS5OQHDmljKZFX8kN6x6ciwWHjir3sKBXsM6OqrL6y2clqfLg/Jqel3WMqmMOkCNy8vWMeH0X8vR+JzX0/3n7SfwDehHv+nFyfPYFD/EuQGob52JmebiaXpLDd1BMO6Tdcg4tMBkWYAegKfkhjg+upLH1V68spdxqAOk52wvOWiu+9Zl7+UH/+NKSVZmcowyVkiyusNKKcKcDvTeAdBk5D/oNEQZPHSscTkvjkGPY/AAAp/TAd+UDvQaToRXy6Eyycrl5cc5D/gsvFW3wj39wDK+P/PkHTbh1R/OgxzSTiLFyctr6Rsri9qtJcNXdU3WTB7KGdgCC7f6q5f0Oq1v5oFsuoI3wR259Qvd5Yds5f7+wv3d7z53unoSo1+APq8fLGBP27P4t3h1PcoWXVMcZGg4HbxWG1oHlC26ieAgtwpC9hiv8ukNNxTukPNGVoJNz6Fep/X4onZxEIVfBj6BhwxDC4zXAuT8uu3ieyFxgaQF36Qc7+mjqzc7QwS8Oy1+v92jHz7Q/e8XzggJA1qRJcF4xOx0UgEJCkCqA53G+RVMY3m6DS77CVrClwP+SRvg7cNHPKX+VuDoPr1yG6keUl9NRyu6KKNMx7pk9rPanZjOZZtqefS6L7oQLl3wctkK53FBf/7w+ZTVCa71GH39brzn85BvaIHGFuCVX7v1GMdqcDL6YHUVjoLflx68hfvhxw+Tye8dF09O5cRoUqyxOGyd/W034jj8ts/C+dt0ZKLH7WF0gDW8/eQhxuYdZNIG8QaHWtOG1m8q5WF8Yb8qnfm9h2e5B8b2ckdu80J52iRcWBFekd1FdIQUXpFtMW+XZ7ceXDRng80bn8xDwqEFBrHA4s5Ip9cp6D18/kotyQtxfB7HzlDw9Ibja5Zs5352yzHe8UkQPT7eRSsDhfNlBNpRh2OCGocyIDtQLc9POtQzJJySgzqzDU+r6xqVMdmz/jTitXgmRZ48b1yrQ97f/Jh0s3CWzlU4iz/D/ddnT3SXHjS3nBhBsgTQJ9j4/PPnZI8eq2wXy4bb4kFm9pC21gL0nGaXXlbQbpVeT+W3IEmwmhwfvVuPXtSZBtWtgDpwBFHGikkfo5xDogUuL0OOBXOe/BiyNB5yLBzqNLToLJzmQXkidBZvUxza19Di1fUoW3Tjx1Go5MR5Lw33DcaVn4RZ6Fj+5UQbf795brFZ7Yk9rBxaoM4C9OxutzPznF679RRdZfFPn+aQu/mBo4D2z24+ehKe0vBxI4pPhf+agIMOgKQfyjnUdRPtRy4bx7oNC2e067e/YleLpx8OMkEHqHUBTY4DrYa6nNL/4fPL+NaZw7f66/AUkexA9FMk+M4KcDgnW7/rzi7eW3eOD+uGFihZgLYPvU5xRK/T+g2uuiHhEeJ+MdmB2xWW7fIK98Tdp6igewzAc2wvxKYiPsarBAc6DsRnwXmuy3A6YA9ewBj8J9kxAWDXo30/GVnXVE8tT+JudfXVdbYuUT/dTl0Z/WiqSz86tKXpYhtWf8o6gx6yBEY61Os2QGvhUEev/L/+iLfw91b0OYkyIM5FDXvt4lPD126VpvkQYVmAXmUeHmPrk9ygk45PPH733svdE3ef7LejcvXnE5rjRrQNWttxcStHk1L6Vo+jPjehW5flTbYN6Gbqaw99E3/8CfedBmeHV3PprLHH9TotekJp+CJWa9IPcTNm8Ha3PfNceghdbmyOT2fwsQ84l8rtlnv/nq91T957akxQZEHtysC7orOSEYHPorNwKvAe5Cm6IM+isxIjfXgtebW4ichryltFV4VXtiBnXau/pm1aniKZv/j0se6SAyVRopMgOD9tXPFst906dfhc8dDjBQvwW1s6Mxf2OsUveUXnV32yukNwGRC3Iwikk4ySHXRPH08eOtn9qidCBMir6uIqKvI0wREN6AB1G7ps1QNHUP9zPtARftD/RHgHbasfvaVLU5wl2+JtQteUj2RZtCmOvm9CiRLsRqqhPoeLB4YvYA0uYP0tdOe0tuy1i0eQ3LAgkht53Rm7vML901W9sMWLiQDZ6pYD7MAj4I1jgkPc0AbjPw9+f//p7qreNiFJh3O16tyl+m67+GXvDRtsv/7O/vW455zkmFOc3fOfmqSrpjxwHiHjEOPDkxztgj/4/cX3v5MfY0KAOkCdoMANsP1wfvUVZIRYoXeQyZMMZRxibIG/abtMZ8krB/u5jUwPWp2wk1d4xqlj0qmkH3AWnYXT9oOtLJzFW8JZfbP6ERNBsGvTfoBew0pblfoRkyXgt9pFnYZER58xpUcsk3PX30xt4Xrt1rO92a0Th1vi9cgZHjZ7gxf12q2V9HlJvlIm39ywcHJLwVHbvsjdffpu/CC7Pilxcg+GkxN9fLwyiaebl2NjfgtMjo/6O3246EhjuxZOtqDTr9+a0+4vP3Mcv3rLvKAnT5bEBF6vPfN2erHHeuQG1s+ujs7dcHav0/oJbwF0UkPdWZ/X0fG1S7Zz/3PPqc0C5N4xhCQEguXaYRDOO5PgREBXByGjjgayAcGTw34y+tVDHtrRUJc1XT+Zeb3mRRlwstrQbUI24Hja0LxaNsqoBxykDc0DeQb84xfP4ncQ0iOY+nxGGZASJqHcbj3ae12x0frpGdaDXtM7+7qd1u+SrUC4k16uhlSn//S6ou9esSg6KzoB/RYuOLAER6sS/Qe9rFbKvKBVDjHwV/FqHsgFv1WncZCpIcqaLi9Dfg6JDjhdrsJVybV4IQOwiibH58fgtyBoAYlGly0e4EAHWMWr68GbQ6IBHWBOA/n96iPfP13Vdce/deNwTofbZdR5rnGL2sUjw5XgOugMu3Nah9E3d+lq1+R/+Bv/2t1xys683Z3S4DzFqCgONJ4kyER4uc0G7U5HG011aUSnk0m6PAE7N2oX8hvYdFLl6T7qMvQZc/9zzynuov3b5nmvV4BYCfY6xV3D54jXESdIwd1eu3UeOz2VyAjxkQxHdFcsfKP79R0nyNMcSCiUgun+ZAOeTmo8XqVwtDpKEgWQx/QxIM904CNo0TXFsZyKdrM2LJ0tXEk/tKHl+RWMDsxT2eKdbJx+sgTtW21YdBauKa9FNx24pjpDlz89vJzj14vnZq/k9+c/dkVYDS7qtM5fR1zA+tsNeY63dStf2VSMjwebbwPQ8Y/C0Xb3sY/JbS3lj4fHD25r55TQ+VVcX5x3igmdhZtseZPRht/uJzbQOOjcDwddNJ2FW13yrHYt/SxcxktOiOK8sBltdVEGrMVZvBbO0iXD0RcFj3vL34Q7HsJc4K/TxfAPOUJ6FHT99R5rec97c0a273Zaj+ffWqDMbwnXabkL92vLpyb5xIoxFE5Q6CAzn1A4oSNdkvDgSR2fKAh1fiLIZIi8pTZUe8zr5QU5VG/hgFf8OV2Qp2nAp/RjnZq2AX5LZhNcTjOIvInw5v2dqnbzdvLjqnanqG+/ufMkd9bumyXfqpGtML1QIc6PXrt4rtceOXu4HV6LnOGSLTZ+frc9ckmv03pOJzOqyrQ6vOmY+Y62CDEITQ4GgWYNUYYDomPgNNRlyLJweR3kAg+Y81bRAa/pUdZ1dTjUaYgy9NEQcieK03JQ1u02xVk8g/JaMpri0JaGFq+uR9mi0ziUAYmPyvoYslCnjyOOHts8fcGmITmSzw9shQXf+hY9MLAWuYH1U1W6xaXbHvkex/saJDsoHvLFs98pMapJDUwjAE3Qx+KC/CGOtn31dtE202XYdXXi8rbz4359Qx9WP90vP3OsO3q7F4fbYPJ5kzxF0m6tGu0UF9MCY/30Lmt4r0fbI+/stltP48qF73DQFczCHbH1C9y3Lz/ESFD4E9RfWXmy+jgKguuI20idT2Q0TVBw8sNPGiQQFI6u5tyOwul2Y12k40A308tqoEo/Dpx7uign6oK2tbxIFxM20IfpoO+A0OK1cGirPyw/QWHxWG1YOCvJYOFs3ma2sngtXNN2LV4Lp+V9/5ol7rAtNwpPjnDsT88ZXwa+2279YGFnpLOGu4P1S71uZ2Rht13wm5rF8fnkRnjCg5ygv/2l3eJH2f71k0eElR+2EdpxrO+4p+5f6r516cHutmN3dB/Zf4774B6vcefvtbm7dtHW7sHle7pfhFf8x+1Xaj/ZegEnCZ8cF7dnoAsxShW8b4pL45ZeL8TXxiEPOrETCRe4ss6T37eyTaeyb1+/+EB+tRbujJAYOZ4SQWKE5o8vd1pPdWcPP8C0RnjZ7pyR93bbrec4eKvuaufMr3/SA2WCK/Z4taPvLfCkQsLDTxI+4TVOBaFBX5WwsOqBA6SJlPD74zDRjPYCbx+9Ap1qg3F0rBI3YSL5rXmuz4+vP9zdctQ8t/xtL3fL5s1yS+fNCpDKOF42f5a7/IC57h8uOdg98+CZsV9o37ebyFf9Gxiv5aGNicir4s1l58fEZ+Gq5Fl4iz/H5ceQU4VHfRNoyKBX79O3qTGPLKjnET9DP8wSr14f2OvM3Kvbaa2iWEUexM2P6ZGgm4/dQSYrnQD485Vdto6y6qM6HKOs6JkvXqFTHtChXkNdhtwcB37U6+N+OJJlyeuPo1d5feOiA3mlR45t6bxN3NL5/o8ywYo/rQ4fGtvL/e6+06JdYd+gk+4LdNI4q2zRTTZudbU7Hf0YrG8//Pih7oS3/m3YDuvwkS4jpEQrxUVzWtcunDfjeavXE6yHrY92RuZ1261n6KqEP121UNbw1B1nue9fs9ivhPoFoXU9ymtvoJtWl/Ef+0EXgP+87Xh3z6m7uvfvupkjxxf+tOrTx1RugFux4BXui8v3krfkVLRr6TLE2WO0Ouzy23tPc1d2t65JjJTnWHd28c0lW2w4az10Q6uny/Rpym679SRiEhL30zEL/51U/7JS+qgMrY74hEKwHskAD5P6GhwH1rk+Jg8irmkbZV7dvi7X6Wy1W88r7VL87sbDt3dn7PAyRyu9ZVjtcVlWgCVcoJkVebA6DHWyarzq4C3db+nt2LB1bnvGx6QF65zhEl4tJyuDV7b55eRDWU5st1yn+avp0Gbgx7mU6RbqMzz4AVO66naJzuaB3vW8aTvgUTCc92Pu2x85xJ00X75GhxWfhrosq8PWrxZ3Zm63ejzCetRqb26xWde/uZlWeeGmZry3z+PoFpcvffDdYdWHCUInEJ9EfutLDqY/ThxHSrf24Wire9fJOyvHB2cnTk2cYQ2OHZ5fHfrt8LIK3EX7vN79z92neNuSrWg7BlvL1mz9wVG/J9MGky3PHo+nPr+UP8IU5lmYY7TY8HNP4Xp0F8bsYpf1yB1Nb1f5PX6dFn+UnAcgS3IAR87vq+fvFwLzSBAA0smIILzGoQwImgSCF9AHncEDqNsI/BkP4y1cn4RHP3lBBwTEV465J+462V26b1u2sj6xIUmOTQKOExwcA0wTHzoZwlthlRjRxzndxe96g3syf4VYRX9Dn6CzBZvyNqWbSBuTzWvJs3B1faurs2RV4bSclWPu4Q/sIx9gyudbSDrK+zIlBFU8TeGp6fUM60Fr8pnKmSs5O6Ve5ZMnO+hq9dA5+yTBeNk65AFhuYqyo6IB5z9wgITX5ZwOx5quih54QM2Lsq5DGbBJG5acMUe3tJAzSpIYtG31q7gAsZXlVZ2qr6LN+Y3jS9/TzpIjuj/QtwoOQpvLmAhvLmuQ47WtXdLX0jnF0ZYYb5rWcw5b4QTXaT25aM4Gm68Hbmn6uthrF2M6sVFVpjc2x+Cxj8lRbMPf9mHX9aOT7W7Ku3bgyLHffNQ8SWo0SGRw8qOOTtfpMpImBo7uI+SYII8DbD2V9oNsgihPR7vjaQP65RCyCKKuCod6wCo64MdH97NbjnZLF7y8lGi0k4/FDxd2Rkamz0Oswy0tmt2a2+u0nuVgK721AnEHQH6TRcvdePS8sJJjZ6WCz+QIEly4sTUNAtPVMKFjGWVefTc9gsvchmpT5DTjZXmlYHrGC10atIH+/vDaQ31GV1Z0aXLDwiEGGG+FYR6sCrFKxKpQH9fgaAVKD+HDVrAf4oKCt4L4zXAl21u2aoDj8a+gm442YJdoJzo/yzaYLF1iO+U2rHZ/f/9Sd+nB/lOc2RMjWAXS/OQEJb1XcMaMv1iHXdPUd422vt05rW+FQCwnOZDxjUmQq3pb8wsNyOlg8hOEQxs3jrYH/goc5NEEyXHUroEr0TWVZ9GplazWpdSu149orjhoCxeTG5LA4C1vyPg2xxGfxPlwj6B3lnyDdH/cee94rfvlp4/1K/R0W8njRjGpEI7wzt/AcbxwSFey1XTZ5U8Pj7nbTlrgV4LyBhlZlNB8lHgg35nRabnROa1Tp95LrMMtdGe3Tg+Z3hB0jY6Plt/nv+cNfO8ZTR5yOOIQfKLDr/zKuMHo9MkVJiuCyHm7fnJW6kL1amKDjnEeX4cLdardlFec8b9efziv/rTjQtICT3QA6gSGjdPJEjhCf3+gekIEbaGdKFd4ztntVe7nNx8t/Yf9LAgb6ToLp+vryk15QQdYJzOvGw9PlQySNRnytHxLnoUDT5+6u07bVe4X9E5P4vOt+DQJPX7Kj6i2FqzDLmrquuZvduatr15eo0zw+O03lkxjCOSmwVtZUdThrDqsRKgO9YCoyyHqAakeZYIo53xVx6AH1PLAo+uAi3Q3HfHWcqLDSFTwihB4vY0FrikEL+ixPcYxwfmb8HPFlJVObVLVl3K/9CrRHt8msiDXorVwoNcQdIBUp8ugtXCoA9Q0uox6QKqrqwcdwZzO4rVwFq+WG8sfP+zNyZMjmJu4R5eOe+3iCbp9beo8xToomb/exjc7l+881wmQb1xysJH0wPbJx/PU1pHjciEYv+7S0Xcgztpp0/SJDiNBwSs1JDAAJ5XOrxwh28NPjG4XQhVxTKZqPLRcXcb5ARwg4XU5p8PxJNL5nUr/dqEX4BToMsD8oOfAz9nrtSExYiVE/MrwseHHlho6akqh99qtX+EJDw6qypWEg6tIglyx6I3q1VExmUFXvhjclTLjaGBR52+A5skHHKCm81fRnI5WHkEW8YEHELJ0nS+XdAFtA15usx/dyhXu4RV78xMeOulhPvVRehJEVmmajzLDxJvzAweoeRJav/LT9STz8Y8fltowtynbJbMzbFWCZbrSGJV41PmQ1VnnkJUUSM6BTEb/uqnXuakNrP5aOMsGlNw69s0v4eRkmKs+WYm56uHNDV3A+ktGS+Veu/glL51LCQ9/w2W7cMe++W/kO73+yomtEDkiHnQP4WymFidX47SNieDEoabymuOIj7Ku7Li086EkBl52oMopDplhSXBwTA88aosbeAbFheTLJu7TR8/3gfzmfZv68W06bmuSzk11mbq+/dOVXblZOtyZIQmRsCUmPDvFke7669369JweqO6140fLOfPLTjAGVglHb3b5x48uCoF0TgpQwJadYZbc4K1MhrPoKnAhuaACwyEJQbiqQLHCB/oc53UutYG2lO5EE+SgXukcZKwcc/9x63Gy9aWtrPrr5AbwGocyYExgkDNMZek6yMpx4AGU+phAWbHzK90fv6hepYV+TQuURFGw27S06ZNfeVvqvOirzyC0eTtNj8c9ZV/dAAAgAElEQVTTxsoxd/9Z75CkiHopCW9//RyW0FXx1JItZr62jytY/6rppsleu/WYD5pWvt6KjHjP0t39ygHB2KpArq6nsqwO2WmFsubV9VX0kJnVqxVnbAfyAC1eq07LrqqHLNQDjrmvX7C/JD/U6oy3qX41GJIeqAfU9cABUp1VD7yua4ijVSRtg2U80B8NY58ijYXrx4N6i1fjUAYEH8GmOM2DssWLOg0tOo1DGZB4dVnLqqrT9CgD5vz5sUWX4q5evG2Yu9j+YhUI2Jvd+ubwFVrKx8tjbsV9coWoT3p86n1v9Ss9WfbTqojjbxQXC38Lp+tRtujWftydJ+0sK78s8cArtdWGk+130MEnWh4a27vPuK1p45Hrkx/TubU24aArIObG+PpBL9yglw7XzWVJihSXKBewfhflMTd5woODqP4Fp3kS5GOj28rNzgg2IxkA6PG0WmBnqOjoStkXx1fTSMc8LMOSV8ZxgDjTZVJxkA3o+5T39+Oj2/JqLU06ILbnb1hWsbj+dJonlsOKkFaJxl/LRX3A+RXjTUdsHxIh3A+M2cCwnFCwkxAW3fhxzXUefxtW4sHC2bo0bbecELLkWbhcFwrBHLnNC5OkCHZ2PL/5vsHiuV5nZK/12/PNmDGDXp/Tpe+PItaHmyrxIXMfVKWM77MPLWcnhmU/OTQeEIa6LM6J6uD4Ip2FI15xfJHOy/PxELTF9SUcMs1o18sjh+pXA4nOASdbDJad4HJdlM6BTvU3w122X8c7QJ/ISJxdBc5vdUOcDplf9fQHOy+/vUUZUJIlysk2pKPnhIPNqR9qSwebl3AWXVMcXRxXRxtN9bPoLJ0tuqa4yZaXtUvfSPnaBfuFm6R56+sfV022xZ3i1wu3+quXrLdOkJIe3U7xGyyX/f1C3nBxK3zJQXPlSQ8yNAK5vMrLkhuqPtBZuKa8CAYrepqsHKgGJH1Qr3HQU7UfeFFH9IPyZm1wPyHDy71g7837Ji2QmADkralPdGgcyoBVdMBX0RFe1+H4g3u8lm1QsilspCH6DqjrrLJF1w+H+hxq+agjnC6DxsKhTvPU0VXVAQ9oya3CgQdQ01lli87CaV7UrxxzHxvdRt4bSIsb/RQXFjsC189bY969+Yy/7HaKryEwasOW+8Def+corhBWUGTgcAWXVZAc67KmqSqDXtcDB6jrqIw/6gnqMuib4CALPIDj5Y3yyKmUEh1ITORbVY2nsl8JJvwahzIg+C3eBrizd9nM2xX9jv2IttU4XQYPINWhDGjRV+HAA1hFB/x46CyepvLAC0h8KANClq6rwoEH0KKjOtQDajpdTuvpNWynva364+uY8+vlS1R7ndb5WPlVQfpAyxN3n9InSC7bRdou1f99zC6hs3CWHItuzcXRSwd4RbbaEh76myL2kyDQj75HIqtgsvuaa1M5t4b6NR8jmUf/dsOR/N3hqjnO+Hbx+HqVFe7Oae3Uo7hfiPP57S4/PC3lJXM3dP9y3aEhQC5xG++cECD3sT+JFcmVCmU+YSdAR+3hHyZoHU7FI8EnOvtJY/DKlTWNHwZeJY/oGK9wgc5fndFfouWboP2NzhSjo9tN+O8zrylO1Qc6C0cyMnxlG6Crgv6ewvmbsK7oH9uZ++PH0pfR15yO8E1wRJPTWbjJlme1MRGcpd/45OGca2aXpm1o/cI8XLnCfX75njErzE90+bfG8Pz3r7frzDxnvYgF0mvtu/5JD7zlJXGEPglCRhMj0hJbHB8cEcEhrtoG1yzaOiRB5Jsd4ogkUUHOR7a6eJpDnGN/HG+LaevLjtDfF4ht7jhwpAdlgdOxlH4Ncd45hYteQ7uEEJGeMw15KZaHi0Vdu33akLEjWSLvTw8vd+/fk54XTj9fK/Pev9qu3Xq2O6e15TrvBHud4i5/H5DcMElG8UFSZIsuP2Qrvy2Kd86zM9QJBVWuTXiALksUTFiekhsyvSXcAEmakn6Kl04klo2ssraLnGjaBneeuMDHAH3Gl5wU3tkXYHSKsU7TKQeneEJskGVqmvGV//5D8dstcoHzE0cH1nlixj6LLdJjnmw5D8bDwOf0bD9vZyRktE0ZVyEnoQtjVe6H1YYlN5FntelxJXkVtJa8gXDsyDJ767ayc9fq009uPMp/V0QeiUP8j7/pDcfYKX7dm7PB9uusE+x1iiOo4zoVrstUR9/w/f39p/urh1xBcFXCFSUe01XSn2j+yhWPm+BzGsjTEGXooiHKRJPT6WPQaYiyoqOTKvRD4RPZRIO/pok4+sh5cFRIVgCqFVuggYPzqztZ6cUXIPRNjFjOUMvS9UoP+iynvBYL/Y59iGMNXE6j8XmZ7JLbJj/OeSDforPkWfyQkdflMvPjKj4LX8Wb4/sdQ8ecrg6f0+bH4M2h0N187A7J3M99AR93Wqt67WLZOvcmaX7DS6d4ui4YumSLDd2PPnGYT2ZYAWcfA+ybyJgI70TasNqdftx/3XFijPshrkcwxABVkmIgHGJ6eUyxibwy77XdbbLEVZ2tdJ0uY7w0DmVA0BBcU3HQC3BN11nrqctab5Slnj6zefIOm8R4oHpmmPwCbpWRxMjM25dssfHz14nVIGV4eu3Wd3jP7xMfoawSH3cv3c1vfemKIcZj6JMAwOlgK3AEdZm2uIGO4xl+MAal8yuJRJ6SEdoADgmLWp1xM67XGbxaZ+A85L4BZ9EpHK2e+BOY2vmVynBIgMqJlWgt52nxIeOLOoIoa/lC993LF4YVr9gx2oWOtW11mfqHekDYx6Kz6lK66rZSunr96nWRNkCj5eoy+jb9Olt9i3aGPtDP0ln3DfNF0xGO3hojDo7eFk0JT9oRSplzAso/dNszH1q46YznrfVOcFG7OBsJjwjl48rs+dstd967XueefXi5cmJy1SCDs/FDUFaW0zwQJRycZj/eidBF2TSgop+Fm0gbE+EVXVae/U6f+SVnI06ItrZIeMAxDYaDM9PyyjhsrXUbESeO8EN7/p3/jIG+cMGOFi4/D7DN0raycCLLPof68Q4iL9fZ4rVwK9wfPr/MfeXcd7uPHbKVo1uYLtj7de7qQ97o7jllV/fPV3b5PtgQ76MLQzjvbXnU13J/LRzx95M3vjaw0tbzF7ibjpnPN0jzY3H+CRHyC9gSs1P0N0uPdorr12oHuLgz0ul1imdDsJM7rAKhncIdvd2L3X999kTlTCTgGgZdBbMZp4PAqo6Cr6gPvCpAizpxnqqNGnkc0IUMcsYq+KvbAF7jUA7tgteSp3GqHcgIOoOOZIFO43wbeCM0HE+EOjGCxEVTHOgnDh8a2yuxJewMO04KhH28TYItMQ4VsJKuqTyLzmpr5Zj7h0sOdufu/uoYs9XxUi7PcvTasM+euMD96tbjyzbTfatoQ9sy9C3TMZxLWkZOQ3UNcaEdLc+X6ZHWjx6ylTg8ToL67DDKGrYLN9oeeeda6QQpkNnttL5Mnr3qTyvARz98UHB+fPUKK6t49WbDk/H56havSoLXdFSuowMvYB0v6qrkAZ/T4ZigpkGbgKDDsYYWL3Cg08coE5Tyrcfs4EoJDJpUeYJCv/AUSQo8C4zj0sTs4wTzNhQ/var/yXtOVWNO/YH+ednqK3AW1HJQb+FQp+Fk0GkZuox2BPfkvae6Tx32Zl6Rl8ZD2SpeuDZxlDS6/bid3G/vPU3ZzmojbSueg8ADThWvlp+3QccrePV/3aFv8o+9VvsH9hud4of0xqi1zgnyDc9ZoJP3/wp37aFv4sHkmAHFscJftkPxmOqGuEFsQCuGM3d8WUyIDJTw0DE7uXcwvZnaigs2w33m6B3GOZYYf8Cq8wX1Guqy5pve84o+KfkPHz7IfWD3V6dJKYwNoI7Daty8Wcz7g6sXG3MFfdT9WxNwlg7iGB88e2936JYbiSNUfoFDY/p4brHL2ucAO8Vd7PCQ6ACkjrVbnBGizBBdEdjRJbELwXFdiFNEOgRcwUtQlyGP6XhFGXkHooNcBUNgVyUeoA+1y/JJZ/w1Heo9rNRF8RJNItPLg3zICHp5erry09aJHZeeUP6m5RSPWF7m+Ep8up54mvARj9CdscMs94tbjgm2KfUN/TZgYoOsvq4OdtL20TirbMkDDrCJPE377zcc5a48eMtsPCz7WTht91nuzB1e5h45f39ZPHhb6LasPgFn0QEHCNoqSHS1tNk5WiWH5su/fvIId+K8l4ZkiE6MxARJccVa5QDpNTfdTvFsvuJDEoTw372yqwK6yuGxc5CrBpbv4liA085O41COkAeprzxasqN98FIbVJblPNpPcXGpX6YjeZp3UHmgFyj65fL6tTHmfve5090H3/4a2WpREoRWE34bTGXaYokj9E945DjPg61YcJpqmzYI7pb3zVPbN59lpPHxtmL7Yiwa4mDn8fBa7U62PHqZB72klrawg9iKaWvsTPVfv3B/mUMNbWX118JNyAY8b/z5i7Hsg/vpzUeHb4rw6o/DZv5TGPx0WPG9tcoBhpueEdD0H0XhTE+ncBfsOzs6GJW8oMGA8RkGJ1KRtICTIjqL12+bg+OqpUtlVMtTdEEeHJbUBV7oFOgs3qnFff9jo8EB2k99qCQI4oG4OZonoKpXExJOsSk8e5dXyo3P3hZko/yvxzyvC8d6zK2gPOTqOlUObVh0wGXjFtpW9cCV5Cka+mIa3ZLU1EaRrpnNKcTxw+sOLdmRznfWD5B0UuWSzqoO/SLIdFRXUQ/aIM/ThWNliwTnZQbcn4+XLng5fzgpJkz9h5XkVpln16pbYpD8yJ//QzLk6xcf6FcCcYVDqxw2tIe0bBYcoB+IjC7yRLrICx7AtI0on+p1nS7nvPo4owtbWy1Pl0EPHB0Dl5d1O6AHDtDzmu1GeZR1pRUDTzAkKPJjcm7AcRkJE2MyDpgcoba/fdl7k/GVccv6EWwBfBMI+2la4AB1Xb+yxdMUF2X/9t5TnbybsU/CaNCLSmb7D+7xGvf7z+mnp6IOcW7kOH2MvgFSnS5r2kHKTWUI3aUHz61OlrYLt/ANa8nHlBa3Z76615G3POdbYDo+YusXuKe/cIYRxJVtKG036cogUOOsskU3xOX2o4lw76m7xi0YYns6wD5VuPmzHN2XSDpEvdbWMcr1zo/l3KW+fupQyfLKVjaN4U0ODuGLWe6zJyxQttXzxNYvzi3UAw7CC1qLF3UWtOk/c/xOlU+JiB9ZS16h3+0UH2eF1V3dCGYSvHp02xAEl9iaNxJfdaRMV6BQp8thpaPqpwCHFWSAvg06FpwMolwpgVM61dJZvPW4ynZZr3petqW/ot99yi7eCcbJw5NRJzNUXFDqYhIjOQ50mNy5TLqH7RV8rxs7P2+TYD91PBhOJZi0nUvyJpsuPhmRjEep3TH3r584XF1scDO6tk8dDvb0di9dpEiOljXL0a1F9AJS6AWIsccxwXwsBNfUVs1swA42s0s/3N9fdEDp6ZDgNySU9uk1Pg7Ym73B67vt1ipygEh4cNwPzrDTco9d1QtLbHZyfrUXnAlN6oCT5XhKN804FcDlEypxOkqXtYCOTv77Tt89TE7aEpNTw9YYZUC6Rw1lTDrNU4WjgD99+Py/7zzZr/xo4vnJl9hv3cTdcNhblN3EvlW2ivadGB3FenmerGY70zdBsNLHmDfB/fddJ/sVIF6Y4p8O4dthCqp7rttuLVijnWC3PXIPfwEeyQ9+yNl/Fb5TcKCT3g/GwVMEsxXkq5MPnJIR6TjFyYQp4TRPFrxlOePBKZ6gi4WD41N1qX6+H1wP565xqo+hvxkdbFTXhrYB6IO8tI0vn/Muzkqy40sSHka8Cg6yQayKnlq46+Sd3X/eJk8twPYIlvN4Yly9vqW6HF93jH6ChvpbUU500XSgJ9hUnh4HxU9t0EqMVmRiW8OeDew4Ht6vnrdv7Dt00v3M++b7G+wFHkDN2xSneaiMP+wFOTn0dOfuvbkkQlTSNCRFKBs8u/gpfUN8jXSCo52Red02eWl1Zzc5Qn9Mq8Kvnr9vWAmIceDQAJXR+EqW4+kYOEDiQRmwKY7owQOY64Bj1AOiDTo2cH6lU91P8ABCnoZ5mY71X/NqPMqoByQ8lVe4H1yz2FEAnSebD6zTKiU4RSrjrydthqMVzEf27/AtGU8/QN9vQdsa6vY1vknZ4m2Ks+SDF5BodNniaY6j53cHdmDB7t7msLfGAweIOg8fXrF3he2b6j4RG0yEN+r36IcPlJuitQ/Jyr3OyKfWSAfYaxdfkWBl/KKbPj5j11fKd315iSzxMo4L+JWRlIGXuFaKQ52Gmk6XNQ2V6+py2vzY4l03cLRauX/p2x3dokKOjP+lmJP9hMeZO27qbjryrRzvIqc32FiCXtt63cB94cx3RFsOaNOJvLLsoRX6I/Ow6+qyKdofDMa3R9s+hP0JLbJmz3zHGuUEaW/ulfOBTLzuJsLv8OuP/ICoACldfXnyAIcYEY59vU0XeVEPGAK/LC8mKlDPsGkbFl0/nF9pBT1CPySQTO1X6oI6BclGlTp7XaK8LFiteLUMlJ958Ez3z1f23H2n7eboPX0XvvN17BTP2unljhwdxfRoW0dvK6FnWB+5YH/3u/vkmVTdP8jTgXWNA63GoQwIGi1DlyeLDu1oeSgDgkbaz2yqx0adC7ccNS9LUiBhAaiTHCj7Or74WHT9cV86Z5+GSRAr4RFx6DtgaoNmdHo+BznW0yEG7sefOpJviqYECOcROH+Qvzar+OWBW29UrBFOkF56sKjdegSrvZj88O/76tDrrl4flueyUtCTP16l2FhwgB7aOOHBygPbLnESsc7mFafZnzfKgVzNE3GTLa9pu1NLR8+tkmOkbS29skk+T0rbFd1fOR4/zpI3EVx+XpGsccoLW/m8v5a82C5dQEJYgZNICCvEkEIMNfg6XikqOtrmNuGl7a+n+8oH38M7Hbu/UT85h6UPzcbN6m81ThIe1B7R+Hb8ri8c08UjwaV0t524IITO5EWpMZRG/kU+o7GGfEiJXlcTlPTJD74B2r/6ihyjvOl5ap94oGAuAt2AU4bLAspoD3Dgdi15Fk71cVLaGKc8alu3HydVHAM+2avo8iD4IHTaLroMmQoXxoMmIuoVRD1g0FnJCH1TfFpW4PW2pPf6DRwD7JeIQtyvBibfV1HjqvWD3hqHMmCwgZJRawNtK8tG3vZBPtFUjAfOqWe+eKZbvvtm2ZMh6Wv0ep3WU0u2mPmC1boK7M0tNuu1W79BogNQf+vjwwfMiVcCviLgyuC9PuNwxZArFRvIbzHoKkVXCxkE1APSiY0yYC6X8LpNXQYPIHhxrHlR1jCn08eeLugH2Whf06Iuw5m8msa3EWyIOt0GZANmNHxCAuflhXaBhzwtQ+OAB87iy2lAm+O9Djz+VTR1+Lzt/Fjz6jLo0D7qgMcxwZwGdSvctf6rfGEVmDstv2pLnKSF86vAEl2FvL//ECUYox6pjtX6pnSaH2XAXEZ+DDpA1ANqfI6juhRHH1I6dIuN4kowS4awr+m0Tl9tDpBeeNDrFI9j62vB0TktR3t6bHvpKhDLsrVojgO9hpMtT8tGeSJtrIu86BMg7ERwPDjwAFbJQz3gIHTgAaziBV7ToQwIGoJl3A2H0z2AWczOiu3pZBPKlXSWvDRp9bUP7avmFvQCrNfZ6sfk4ywd6vW745RdSk+HJN8O6RS/fPfmM/5y2p0gfbCk2249yndq+9dbsQPMXnn1kfduEVZ/Ekj2RlBBY/L87BSB86uPQXGQAxiCt5k81APW0vmrUqIL4zKdLVzWLtrhlSz66mE/XSJvRbslef7EAr5Sl0xeJV1M3CS6QH7ox+B03HfYuSTPCrpnfYPtgw7CAztDPultlYEDrKZr1je6DzJk1JEFLkGK3SEBAoinQ3BcBckZ4g+aTdzXL9g/JEHQl342iGNp9c2yc6TL24Ashiq5ATqaQ6GMca6hI9qnH1jmjt9+49pvh6yWN0Z3OzOv4mCkf8KDlqPkAGULLCls+srbzz99THSAbAAxqizVZfLxIPk6NlBC543WCBdli7FlWY0yBmDgNhAL8dsLlhNwSj+/GiD5oY1KHLYDXucgT+kccE3kCU2wZeCdCnmWzk1wpGMTOrFNamcLZ8mzcBZvU9zg8r523r7yyjGO65GDkuSGvIaMnvbIcBZdUxzfpC7y/vEjh6gkyFTbudp+cu5LvcxzKtNcB05smuJiXaQT3N2n7+YdICVC8sww3Rzdum9aV4D8pud28RzfoU37cv+0R3SAEqz87Km7SKd9YJQ7honpjZHgyMGoetTV4rIALHgAa3m5LYovqnYteRZO6RnasOjGgwMPYI1+rPsk0rHdKuTBTqG/Xi+N5xNe4SEvoaF6P9YJfiI41WaQmclrqstE6X564/vGkQTJMsB5nK/BMb1wlfuu+63L2Tkb7DQF41FpQz1O+jyDnoCKjj4fcNiWG8WECPucmBDptVurRmdv9NJpcYJ0y0uvU3wndXb+mT0VpDz/3W9w9PETJC/kSqCuptRR/serAV0R4p/q9THocjzkaDxwmj/FYVUYdQAt6ADRLuoBqR5lwBxXJSOnI/5BcZpel6t0GU8bkAVeaqfpH7w5fRNZFg1wgLlcHFv1wAGClqDG6bKmycugA0zr6WZeul8ySV7kDsyvCgNNfpzT07GVKPF8Ywte4f73C2fWjI+lK+EsfNofe8zBB1jFk9fTMf7gyWmAj/CKRW+sTYbQx9SnxQEumt3agWN9/ICyfbf2sp1fzjfJkpMp/2VpXsbntE3pcr6pOLZ0GeLoKl8ex6nEQTagHmuNQzmHRA9cFS/wE6N78Kw90zggkhwU90MZsAqHGKHfMidP6Wje+bMc3Xw9XX0bfMxhS0DYuPl40AtUqvwOJ0XarZ9MSzKk127dLN/z9E944C0vPgZ4wlv/1v36jhN4YpCnZ2OpgGc/HOoBQ2CVY4BRHuoBiQ5lwEnBKblBnr9qQjdur5LO0tmfCOBRULfxf7xFQEA/JgNgU7TLevhgMnB01c7pUKfbsOkyXsRfS3pKQBx20JDaiu1ZdOVgOvcX50qAkTfKU7bwdNyPUIbNYhvQzaYDfdTZagu8ad/KulBb9IghPWctyRBkcAGRuDAgv50no9MOkJ0ikiVCR0/o/MdnjuPVX+xn7BPhdH/QD9AKjLYCbVM6c9xqkhtJuxV0uc60qj55h1nxuyHh6RCJC8prs4qjpnQVSG9h6LWLZ2LCw299OQtcuNE5I+5f6PXcfvJRjIEmIR03x4nDAG8wBMnB1RsDOl243JnAIWinsz7gaBy5nzS5/JgOcWILwy7/cs0S/ipf2Oaq9ydOJu5zf3692Zo0HuxAvT1wvkwG7u6lu0m+AR9R936HcxD8dEjx1KI5G2w+ZU6wN3vmqDQWEx/yqhpxhBfv3zGcXdzHc2C05BTTBAScnECpKzlPHyCN8jwdZDO0eC06nwRJnLamg/PW8qSM9qt1bkCndA3yoAvDTBdFL3ax2qjAWfI0TpWDLqq9gGOnF/Wi/uMip3ViHOoQ1LZ4Uach6JROug1uM5PdVz8tH7zUzlS1sXLMffvS9/Kz1Nrh2WX/TkYr9leDo1fu060iwR5GH5vapUSHMdAyNQ5lQNhUnTPh3MhxXmZoU/EmfVGy6X2B9AlNuQGa7jrxiRC8cUq+HfKdhfNmPG9KnGC33XpI0tBIR8vzedib/8Ol+OZDOiHiiSurQVnVgSauECOdrpPlO11B0nrgQUswx+EYvPE41SHl1avWtF3IsdrUdbGdVGe0A37waFjFCzx4AcGrZTfBWfJyHI61PKtd4JrCfvL61de1A15AotXlOl6rDryAVfJ0fSrn8Y8fFl87ZjmzJgkQg48+iPSv1x/u50V1++VzMNXPru8nr1892pgMuijjE4e/uV8yhLbJ5026A6Q0c69d8Jue4fA0PHq7F/PX3jnuRFtD/vtYUjgm/ERwkKthU3maB+WmvEO6iY2bth/KgBgLgsABapxFtzpwWrfm+v323tMcfRI0uUE6S2QkSQ4kQHSCROPmz3L08gNyXnHO6TJs0w+HekDwNe9bHDfNW1e22qqjj3X0lb0j3viCJCHCSRCVlO22i2cnfSvc7RTHxqc+5KZnCTxKJvj6I94Sgu60upJVlFccAW3ESXzsjOkQz9MBbIsuw9FVPW/Dwlm6DEQH3TW09AcO0OuHPhLkdhUs4TJe6BlkZDZgPHBeP6uNSjq0B2j0EfKCDoqmrk7TW3QTwWnZKFvyUDceaMmbKI6c1Y+uO9R9ZP85qSMMji1LfgR8OVnyMD4ypcajaT+tfli8Fl1THDvlXLea8yxpvw/dF1bs5R1gfEWW9kVUXtRu3T6pq8Bup3iUtr+06kMShBoC7vvXLgkOkI3EE1M8PR03wZERmtA1lTekE3tOpk1ljDCu/krO4zbEYTUGWGUres0YbYvvOWVXd8VBW7gP7P5q/9F0/8SIf46YYoW0KhQo5Qv2fp37Hn9TZ821PSU+wqrQnxvAsW0yHJwl1YGuDkcZ4Qv3nc03RvMuNCRFJCbod6arFnZGNp0UJzj6+g1nyyNuPvkRnv4QZ3jS/Je6Zx9ezp3mTvhlOQUzyRAIaqIMKCdKRcAevCoI2lceeAA9L9pjaOGygCzodXsal/RHy0MwfUCdK+XV9UPZVesJWbU4S+caeaW+Z/3TbcpJHMccdUFGHW+mA3hLUMvQ5Tr+Ojpdp8t18prWNZG3cowfGqD3LtLtM0/ec6r71a3HuR9ff7h77Iqu+9YlB7vvfOQQ99Ob3sdvVGd7aLm6XKeXoiuNh6rT9g50dXJ1nSXH41iWVZ/xJ3REDx4FKSFyzJtf4p8OET8Uvh0SXsk38+RJcYDd2cXlJQfovS7hbzlux8pArGxTs4CoXx2Ks6RVCtVrmJdx7CcW0xIOeJQBIU8fQwfU4Rg0gNQGlUGHMo7BB6j4mAd0Gp+XLZp+8lAPXkCtH0OYjdQAACAASURBVHAWbY7LdcKxl+e31tHGWnbeppZdVbZ4LJzFb9E1xdXJ0zJ02eKpw02EF3K1jKoy0Vp1Ggd5/aDFY+EsORadxuky+C0c6vpBi3eFe+SiA2oTIqNzWt+asAM8YvMXbtBtt57UCY+8/JMbjpLtLy99fdxPL4MTvF+6D3GZzYZ2oSs/b32G50Zmh9wudJzj1LZzjbCf9gODlvO+5ccij7bCp73tZUlCRPsmSo5M+BnhXnuky0Ip/pc99UHHK/Z4Na+WOIhJhleBT7paYS8PfAmnYoWgkVVjU16hkytjLCft+tVMkOv1snWpaFf1i/Rk3nHjrLvuU9vpNkLfGrQLvWgFG+zp9Yx1sS3gNO1k4SAHsKoN1AOuTjroAJjqUm3TlK5sX1ueRVffBuQATrRd8Gt5KAOChqDGoQyo6fT8C/WZf2B6hQt02bxK5GZ1t574NvZLnJcIT4fEp9QWzZ45OqFV4KJ2Id/6UAkP/Sjcwx/Yh50cTzh/5UFHBsXJtlO8PXiHuLj8Fwce7aNthLopxamwANqTJxD8xMDFTIUC+tNJ/5rR4QJHToK2TVa7UyGvabtN6ETvcn/juNb3rUkbU2GDAfQjJ0VxPT1GNTixhR9LT2fhLHmPX394TMzy47j6tXycs7h13A6Q7qUJT3qEu63pgySSDDlqmxfxx3JYWQTsfUCTDeCX6QiqRhxieWRUKQeDKTmoI/76Nrw8ixeJCVU3iLxcdxyLo4ntAq91Hgin9AQfwUbymvI2patrl05qBK0hz+OgK2Cgy+RZ9aDlukwe12U4LUPzJHKydpM6S57Hob1SG5Y82ECfx8o+aJOg1lOXQYP2AANPJg/1JRkVuoAe7eRyUV+Sp3XOZENWwgs9waeOkzbJzpn9cZzQKX60g3YBaRt8bEiGqKdD8MqsdvHEuF+S0GuPnB2SH3jVFW6DaRfuk0duL1dhf+WXKzI6J1ch8dr6akBl1InXz2lkqV3FA7yWA5wlL6fTbad8sV3QVPGmfFiJSD+0DpADaMmz6DWd5tXtgkbXo6yhLmsewus6XQYdIOrouAqHuiYwl9eEBzQWbz8c1eMPOYDgBSS8LoMuh/3k5fT5MdrQEOWclo5RRxBlTQccoOYBna4DzqLrV6fl6DL4LBzq6iDxWbwWLsq5srt1bTKk25755nGtArvt4gc6qJiX/y1JfsgqjVZq8W/hdD3KE6GzeCcPRxP+ibtO5teN33XyLu6243Z09562m6MP0NALKJ996Kw+/Z08XcSuA8rjLUWdnQeUx+MLHkDIJziVOMgGXJfaRZ8AB+kbeAAH4QXtdPCiLYJWe7q+rpzyfuVD+1YmQshnddutcwd2gP5rb8/peJ9Ogpy56yvDaoAnJiYae3AJ7pI3D3VURp0KfOY48CTQywEu8Ch5VIf6BGa8zenG3C9uOcbdePj2/EaP9LVG9E43uTH1A7u/yt1xwtscvQWYnCX1l9vP2g06I07m6UCreaP+UV4ljvvtT4jEBpGX2ha9Is6SF+niuCV0kE/y0K7HMV2GY3kZzqJrgpP2+rfbnw4y4jix7Wv6YenXpG/9dZGEB8m32oi46dMZbYruTfVL6bQMbQPMDaoPNN4X9MWFc67M+8TdJ7vFc0Z8klaeDtGvzu92Wo8O7gA7xRGS/Y2PveGpD3KKdy+lV/CQMphUehJOBJdPVlrqTi/u95873X32xAVyd77/XivuyOePUFu4+bPcNYu2dv/2qSPjhSHEOcROMuiIeSocOUN/RSR7hv7muKbypoxOdAtjzvpNMs73f81vw5+TU2EDin3pubWWtRHOXzWWU4sbc2e/4zXJXSriAMOjcs8MHAfszZl5Oyc78NSHigGSY/z3m2TFIycqDRg5PYHh5C3hMPk1XcaLwQZkI2qHGoPwaI+vLD5gijLqdFAVq6DgbNAGgq0rx9w3Lz7Infv2V/PjR+lri/TrilAGjN9zIEdJK8I/fpG2xhV9g12CzorOwgWH1ofO4s10gE7BLloXlBXUdFRO/l6vQXFah0F5mV63izKg1nEdxQ1sv9wO+bE/R8JYoB7Q27RRu8ST8fGxhdPzL6/HOHp5SdsG7c3H7iBxQP8USMhd+OPF7ZmvbrwKXD5vxv/rdYrSx85FaMudOO9v3Z+8YtI5v5rx27sE569kKc4biWVgJVSFo3r8QQMeQI23cKgniHpAwdEbdT/23q3Kjs96VZF/PjNxkKDz8OO9bdkJhsEP9krbLfcNumq6HIc6grqc00nfyrYHH3ir6IDP6fQx2swh2rDwOS4/tuRDnlWn+UFn4TQvyoBEr8s5v3VcRW/RahyVc978uIomp6PjHJe3ZckCrglvlbwmbVs0VTirHQundZYyvSAhOD0s1jykHetoZ2ReYwe4sDPSyRMe+vjq0W1V4N/Hi5LkB3B+W6zreHWBekCDjq8OqAecfDpyDo+cv59b/raXyxs6JvKKooyXttEkn1ae6X9tx0F/QN2/qcRBNmDTdokePIBNeaeCDjoAUhsoA1a1i3rAQXghU/OuCTjok0PoVgVBv8J97YL9ahMhA307mF59peN9EguMT4L8f+e9RyY0X3m8cj5OR3FB/vsgP0984ECvjmVbGmXQ1SzHWfIGokO7KuBKbdA9RPEj1tariIADlO+vckIkcXaoB4yvL/rex0ZLtgpOEXbIbIW+od/aphrHdBV9a9qGbgtlQGoLZYY49npzG6Hsx10dRx4Jkod+ME0aOJe6Mh3aIFmQBzn6GHRBZ0Wf0kU9gQe0eFNcWWfNC70Aqa5fPeSDDv3AMeq1TI1L6aL9gM+h8JbptPzIE+lQTzdpo33QARdp4nwGLdfp+efPE+0fgrxx0P3jFYuSJAgnbMPTaxQLnNltvALstVufxUsGaVlJDjBkVTot96vbjg9OipX2W184ronhxKvziaC21CI71ul61A2CI9rg/PzbdiXR4Z1XgvOObRw4en3RMw/GzxVCV8BBdAYP4LTzcuwFTlG2JvzUQnDgQxxiVeuzXeL8p+SenC9TjaPko/gqcnbyWqyQCJEHN05v5AB9/O8J3k/7m57Dd0DahTvpzzEumXg+II6AOQKaPEnIUamER1ZGnZaDE6eEI968jSp50EFB4UWWNer89Qv2D+9aC7G8ENsrJzcCDTtB1ANSEkSXkRQR3EMr9pbkAfoBWNUPVV9pqyq7gBewH13JVtm4+fHUYxCC5V5/qtO4oLOWDVrgtH4KV0pyoM7za9loEzhAwnMZegEqHaAzeBJ6ost4UA/60AZkWvSWzp5Oy0n6kclBHcOMFzqVdNHtZnbWchLZmc0S/XS7mTytg5YX+FV/BsbBthVQy6OPp9NH2cIrseAEQ1KkdXMjB7ioM3O7cjDRv2+rXbirF2/rTw7y7DhRUAYkvC57OtAn0KIDjiD+WoauR1ug03Uop7x0Y/OKnV8pCQ9KWmQJjOQD1MEpKjq/EmSnGHi9AzTkUVtP3nOKt5fWqU7nnA791H3JceDRUJfBSzj8yXmpcjJuwBMEL6CFQ9144GTJgxxA0kWXoZuFQ50FB6UfpN3xyIaO4AUEfqJwKuVZsutwdXWxn/RJ3rLvku8WdTvFbxrdCrOoPXI2b3nDO/b9fYD++Cvn76sCtn6vz0F+2Z7S9iz+10zcnScumPSERzkuiK20wNuP32mNt8v4xi0f4/yYzodBcDltflwnL6el46Y4fd4O2kZTXovO0s+ia4qbCnlapi5DJ43TZdRPBuwv96MLt0oSIQjjhQTuG0a277sK7M4uvhkCiP67m0iCjM5puSfuppVMDCTr4CZPIFXHdD6gyXR+1ZHQIX7k+SC7Hy/qAUk+yoAW7n+/cAav/thhJd9cKCcwyjQxudG8TuSescPL+MkS6nudfiWdtV0G5c2CyVa7GJfQLsZP82ZjCB6WB/oaaNFNBIf2NbTkcX2F7prXoivJg+2zfpbo1Hmo26ik0/Lq2mjQD6sNrQPKE6GzeHNcfox2k3lfYSemzfrK8jJckKns9+Xz3sOfygz+KyRB8HqskctqHeDBszd4UbfTWqUTHhJYlCTI8t1fFbZCmMhQjrZIk4ODnAij7HgVaILDtk30El76WDVtXfWKban+7oLP7kacbG2JHnFAlANMvt0wy5m882e5Gw5/S2Y/Wb5r/SydLVzOQ8cWzuK1cBZvCUdjjBOOJysdx6xgoLdwtBJTJz3pwKuzCnmYCExnyavB9eWdDl2sNrzOiX6ezsIlc6umvxbdpMmz9KvRhdrF2MrYyQU/xzWlo7414SV5FNqiOCA5wODDqCzfC3bd9syfL58x4y8qnWC33XqPfGyYmPyfg4kihF4+yIFHMoAKTKKMOgnKZokHMqQOzlJZyUGd8KpAPMWeLN5x4uhrWhK7iw4Njs2GFt34cLQK/PXtJyQJA903KuMPewBqOgsHvqmkC234MQnHSu8qXNB5HLxVMhnfVN5k01X0OfQT9ardUh1oqqDiDTYADrCK18IrnqCLwoU2FG+gUziLLuAseR7Hsqx6LRs+AXQEdZlo/XGim6c7952bh9f1ISESP6BOK8HijXUO8ApOIas7qOMKsHDfu2Zx/F6GXwHw1cd7aXhrVnDcuHjFEHk4xpVAYLmNlE7rgqsN8dxx/Nu8A/SZWiQtACnBERIbVPbOTtfnSRCuM+g0r+d58Kw9ZQDZPtDZDyoGmyH6CRpAos3rgAONVa/bqKPTvFqu5u9XhgxNZ+F0/aBlS56Fs+RadJONa9quRWfhLP1AV1dHNFa9hYO8pnAyZDRpq3k7D4ztWZ0IaRdu0ZyRs6sdYKf1WAgYhiSIfArzyG1eyPez0TZnYn/ZiqYyLJzVjkU3GO6Gw94i298k/tcntpfc9JwmN3grDVkN6K44cAvZ+pXsOFg/+ttvKI9WCKmd6Jwa4qbHBtb8nQpcOp6/vuME2QZn/iv6teIrpgNcssXGz++2i1XJ/lklQS54z2zzCQ+6utBJBkirLf5nONTTKoxPStD5lRBwOR0fG21YdBYu6iLtXtfbNjpAy2HBmflvs7KDQ8zQxCnnGeTphEpapkfu6AkU2CzXWVarYkPYimgsOti6jo75vK1LdH5lAF2iPH+iol3QqTETPWNMEO0AlvpRwxvbjfIsHGQDgkbaqucFreZFme0yoH4Wr4WL7TbVz6KLScfJbiPKi2001Tnypjoz3kpaZLicDvLgC6IeqW5VdERPY3nW7pvJUyGcBJG3RCMx0m0XT5OvKzlB+ogw0sYhgOhvhCbvedtJC3j7K5NFeV06cRAQz1Y1mHDcIV/XDwejgI6OY1narcalughdiqNXVvErrXh7qpxX+Bh1xFFMMCQ6vGM0cYE3OrvYRhn3u/tOq3SAls5rDg7bKW3TIY5jUbhYhLmw/tqFzlexSbTBdOJuOmYHnwihewBpBxteiyVPi8zZoHw7DL0AVRygf4yEmDgRIvCG983zjihNSlDwkzvrtxYIhkacFdiXBIk4NjJSlJHKs3gb4LQ8lD28KrzxBYkMQDy9oeJ+HLdDPUFdzp/+yOt0PerEGf72XnKAWT+gpw/y4gSqpYPtNS9wCgabajpVbtQG9PUBaB5nlD2EHECcCzS+oZzpBXzCo+WBV+Ogi4fMCzqNq6PL5JVkTEQeeHUbdbhJ0DnRX7eb2SAZt6xdLYPL4CV56nzBmBFM6EBfgw/t5zrCPkpGk3Y0DfT5xiUHSxxQHoErPR3Sa4+MlVaAvdcVG3U7xXOcMcmSIJRNkc9fkuOSFZmsSsQwfIJzB1CX4b0BI4+m82VTLtXpP+Q2wWkaKhPvCnfpvm1eAYZEB5IeeZIDxwSR9BgUBz7VBq0on7p/adAn9k/0i8fQWePRf42z6IAjqP/gnwhOy0C5CkKPvF7wf3p4zD39wLKK14bZPNKfqjqN122jDFhFB7xFhzoNLToLp3lQzunoOMeBVsMqGgtv4bQslJvSgZ4geACtOo2zyhPhteQJ7n/uOcW/v8A/BeL9GZ4S6XUK+w3R3U7xawQLsR3G8aFbbBi+AMf3fmXbXboS6K2ulNcsHDnBc9/+mvoYYIjjxa3wsknE0a0w8rJU2UZGm61Ztop6Qc/J0++Xnz6WXxr7wT1e687YYZYbW/AKd213G/ePly8M8dHYvm4XZUDoRnAqcZANOBXtQjbgIG2AB3AQXtBOBy/aImi1h/q6un684lTpkx3wXRrK7X3FKlrwlVeB7db9CBZG6B+Fa7fcjz5xuDg5H/dDkJJOVroi8ElL0P8Hwik+CWaKPJbRQF4tndeP3spy1k6bRgcYEh7K2U0pbhN3zm50M/kAffMruKY2TWRbQWdt54px47Y0L+g0r6VXH9xvPnuiu+V982vtf9l+Hfej6w6VLVcfeeE8aUBX6pPiKZ07qm6QNhLb63N2IvIsm2fjAf0Bq3RmG1i6jFMe2gPU7aKtBKfOqcDTB6floNyE95bjdoyJEBUDDH6tM3OvkgPsdlqnhxuhOXjINw6KJ2233CMXHeCD9+KhSRFWhg04WTjI8TCRPTHck/ecGu7rk+yuOD7c61eFC4kPf1+fToxo3iZ0dBuMxFNiOEEuIBPrG8uYRFvZ8uK2I+pchZMrMdHRHfr3nrqrvHSWE0tpWEE+MBVxZN9PHfpm9/Obj/a2qmpD8KkusV2xM9FYOIt3IrjV1cZkt2vJGwynfYKEnmQMME4Yj5RO2uiPkzFK6cq4717ZlYSH8mNhC0y4OcWFZQc4p7VTuGsaT4AAdlruoXP2kaBnFhDljunAp6rXQVKUAcMJqnlRVjIQ3NRQl4M88CoodJJ0+a87TozxPB+fo+1tjPFRGf84IUO9julxWfGGujJOt8FviS7pJ0mC/v1YvXRky0H+lO2m/tKqO9qwbJ9Yl9qcHOEVB23hHrlgf0cfqjLb7hM8N3kG7MdaL2NQG1XQ6/Oz0iaeN6FtglNtDsxL45m18YcHlrnDtvpreQwuvBKLErx4NG7myrIDbLcW6CdBgsf0t8PQm6C19w7e3a88Yp14fFEKnj3i4pUAnpsmFugAQU/H+IMex6DVMC+Ddsz9z59f5MDJDyQz4LRwjIQHINWjrGnqcOABPdrw+O9+dJEMFg1Y6Fe1zimNptO2yGWBLsdrnmiX6jZAY8mDLBv+8NolHG8tOTfYTtslLxs0dP8kbZ9/dpOsCsO5x3bUOkDnJjiiadI3TaN5crxuE+UqmhyfH+t2tKycjo5zHOg1tGgmgzeXax33w1l65DzaHroOZcDY5/fv+dq6p0J+VXKAvU7rah0w5LJ/IzSVH7uqZyQ6JJ5FTq3Jn64cU01ntUE4+oj5+3fdjLfBervLW9qa2B+tCpmetsDhfsDBcRT/o7fR0BUut0GVzpNJZ7WrcXQRkvbK+mm6qFOZjhzT1y/cn7+lbNkq2JFW2rAlYLjhXNk2sz0lTeire//74JmiK8XIWO+yLk11tuis8bDooi2gh+w2cnxTeU3ptC6RZ3JtoNtAf2Jbsb8WHegrYRg3LWdyy9cd+iYzEUK+rNsunlu46YznBSe4cKu/ekmvXTxNK0BxfPIIHI7pw8P/c8+pfLLRSc4dQ4CWV29eeeAAVZCTeOhqlfD6VVCCq6ODXC+H5WmcJU/hbj12x+DMMBn7w3gzcz2tRRdx9GZoCQqnd84ngeKsL4ldUKdtqvqGIHFow6KDDA8HGg+0pXmVPDovvvTnMEm0Uez7Mv0UDTs8qtP15PQsXI4XmqsXvlEezTR0wTlR2Telc5XtIaNkU8sGmZ1TnpgU1Pi8XbRXmltZe5ABehxXy5P2Nb0ua/4qGZpG8+py6TxVNgl0ChdkTiHu9pN3lkRIeBuMuiGanOCcF2wcHOCiOcXZnCFh7yhvgtErQLkPUBwfBok6FsuomwhOlrlkzCg3Os3JwFFA/gO7v5onKVZ22BbzxPUrDo2jbRzVTQR3yXva4VnqyeiH2F4uJtMlj9rBXyZLPCb8w3928Gwnv6Wl5EYIIUwBjlaC3PfsPNQ46DseHM7D8fBa7U62PKuNycaNR2d2eH4RE/XBuSpzW/BTi7vvzD28A5RkbgjpITEyt9iMHSC9KrrXLn6FACFDJD88vP+sd3inJCc9LXtpOSxL4hRimazrQlknN1S5JA91WXCzRFeXULB4V45xHOlDe/6dD8znQfn8OA3MS0zLoqnG0daXPiRFNsCf++H1q8RlNkjolCzCa7swXcaL+lK7oKsZS6tdyENbufOrTyZpW1FZH8PeOT4/lovS4x8/LLVpg36gPwRhj6Q/mW0DfYWtQr3i0/LQhkWncQPRQXfVppZFZcgr6VLBo+nIQf3nbce7Ry88wN2/9O38AbE7T9rZ3XXSzu7e03Zz9Fq5716+0NGdFezMKmRqnRL5NfQTodO8D67YO02C0OLOJ0Qo2Ts6d8PZ7AC77dYC8Y68N1aBQzmmbAp9dIQ6iisCf/XKrwgiLnr3gPOrOebFldrDBKfpyDiqrXhFie1X8+rVo5eDdlUblKG87dgd+UZcrFJoCyarPUxC2W4xTq1meGXjVzTiEP0KkVaKHNuCnFl839+/33iUnCTeXqT7uP7eLk15kzHCWCnbQ05czdF2CbrFsQSdwDL+q3/+TKpse6PdYJeJQIxHnYwrD9pyfLbs20/YAbDc79QuoFtTYZ3+sY6eUqLx/Mh+nWQ1T2NgjceZO77MffLQN/PbzrU92BEFG9fYZMBzWrdhlpW8lee+S3wZOT1ayOk/4ea0tmQHSPfE8HbXfIVM4a4/4i0St6P9unciBPU/BtBTvKaZirJc6fq3WUVHTyXcfNQ8R09oyCSWADwC9LKlizjg4/ZZBfPD9llwH37XG8InRPv3XZx7SmfhrL5adNOD+8HVixPbyUQRe/GEUYmjxL4quQE8bItjbXuSBXxOR6tAmnCp7chOaxJuTRq3qAs5Ebo74p8+uogXBCt2foU4vgHH7cwdN3UPje1tPMkT2yqPz9TWffX8+o+ld9sz38wOcFFn5sp4h7S8P1/eotDid2v94tPHhqc7qBNYkcnKQTqhcRzg1I6SVx196HRgWrXBcqlO4Vh+wMlJTnTQIfBAJnj9cULn9fyPzxzHjhCTTMN0UvvJbWQs5YZeqaePINFzrnSC8cAnumQ6qxVqqW/oV9C9Ql6oR9A7o0MbXh5sxPpBN4LeHtC5km7lCveHzy91H9xDPVoYkhhwVnHVoO2JlYR2ahEH50kQK2mRIzJQRhuzeAVS6ofqb7DpJOHIJnV20bo0oRtEHvqi2xgP7l+uWew+c8wOjkJBqV3F7tH2DcZDzYWbjnxriHVDL4JshylMeIS2VBv0UgTJayD5AegTvHOLXWQF2C4eJ0KK/WElyK/E6rT8SxBoCRs7wcb3TgUdW1dwP73xfe7aRVv7q6BMMjjAfkkQOpHoZQs/xKNcypmsG/ZT2esvrXBf+PPbrWEbODg6nm4crd7pMTte8cGZB9unOst5OgAOE2qy5Fn6TWMbf/zimY5eCjyVY0SvnHv6gTPk4u/7C7szzHHoPy5QCIHldGoxUSuP+L60gt9gT9teiveRX8Nr/oBb1C4O8jHAmT+X4KC8OwtlghfuO1uCqVBKQyoj2KpgUM7CcSd8MkCVOWag5am6tI0VpaB3iVe3y2XhaUpH+v/4+iMcXc3oBlxM6ipITzpcv3g73kbQy05J36q/1qGKJu1vWdagMqraYTmZnS3aUnsr5S0uH/jzc81VNpkcvJUcseOM+uPzVh9oTE28P59DXR1dzbiC37IV6iYMEVPLdc71qurDyjH32RMWTPGYyfjQbUp0zyvb3euT2CbXUR2X6FCnIcrouz6mMiU7bzlGHJ9+EgRxQI4LzjzeO8DiBxIg9FkSELULd9pOL4udYMG0EsQWLg1usuK+cXQcWyocM2+gEVmCU2U9wJ4WwXlALUe3gXpApvPybP1iH1APSLy0jf3+x0b5Fg96rOu243Z09F3hz5+xh3vk/P3dj68/nG/KJdrYFvoCGNuQlaA+pnKZTusP2ROBljzYLfY3JkE0Pei0nl96/z6liRSSQ+pJDmyl+jlEi24QHE241D6WTcu4lCcfl37Hky2v3J5sH8v4st51ukgdXdRppZ6PxWSPG8fH523irl/yJvfsQ8vjuGBeh/lv9yuej3Z96HsfefTeTV75WUkQud/5PNkCUwxQbX91efHcEX4OkyZB/Pv4UoLT9XXlprwTobN4m+LKutOVO/a9XL8+1Gkb0PaG7qXUiaCwBSbn55/sCDgr4TEOHOQS1GVqh/ShiaHHQuus8etq2UpEwgZkG3rlGDtAPHmjxgljiTFjunGMUS7/c0t3T8ZkOm1P75tcPHfDENbTfo3L7eLj7ABH28UVHAOkGwT1n78J0nI/uG5JOQni9+ccfPTxQO6cwtOKIcFZdH1wLMPL0fKAB46gLlO7oAllH2vI6XQAFXVy5UVCIYW4KoMP7eRQy9BlTRfLKi7lbch1vh+RTnRB2yLXT3zYwICBTsuupIvjZrX75Q+8SwLn/taIOGnKCQqpAx4BdbpdKCYxAr8lr4SLQfrAN3+WoywkP2bo+6ftndrKsp+FqxgPJT+3KdqBzXAsdBNpw+K1cNU6090O0V7GeIQEFsZolh8jPU5Nx03JmD/LcZae7KZifcE2DXCYB4EHY9CA9/jtNxYHqP2avxG62ynu8Q6wtYQ8oiRB5D36yALT1njln094diLUIE/IeKXFVUdffSeEU9trtAXZGurykE7Gg2wytXYZc3RVveidrw8ZWt5O8apPJhUd00Qr31s5flxowzvDsIVT7VKb8qZtfSEku1DsT7aAOE8qcXxBiLYUeoMXF44gl+xeRaflrT46uoGZxgRhhaZjZNne4tV0vDrHfbLzN3GXvGc2b4Xj1lbGSBwbtrlivwTn7dsX522f0PkxWrbLKzgJIiE+3AsYch3yhTi6IRCJj/A6LA4cSkyQnqmjpbRMLgkmy0mUlku4LMAOrrY+ZQAAIABJREFUAwQ61CsoS/a0rTCpS8mNtP0SLzkE8KANnhCYGBEGOtBbdP3koY3giFT7Wh7oMhzpwH/UKxj0A07zWjpbdMBp/YDrJ8/X/+KWY8TB4QRfgyDd3B4vAt6WuU1xrPvrxzW3vTUeJdw45aGtkjytixpXa87U8qpxpZUxvwRkNY7Vty99b5qE8v0M/SI7Zn0P/VN2KNnNsj9wK8fcB/b+u/D0B/s4ym/4pEiv3XqMV4ALOyMjvU7rOZ0mDkmRduHwQSScXCmE54Ynh/PyV0TtnUMZtJEXV2eRDV7QRQgnSnSytSAY66GbxgU6GLmC16KjqwpkpuW0zcDLuoAHUNNW9y22U983i07jrDL003XR5tCTIMplnYn325e9N2yNwkqscmLJdrU/nZ3ZTfnilkzjsaIhnHaAup/1Zau/uu915aa8q4tOdKdPDWBVpu2l7ZiXG9NVjH1IrPj6Kw/eUlbjYa5W20TP8fqxqxsbqbv4gE76BAjd7heSvK2fswM8YvMXbtDrFKtKQUKfGLnx6Hmyf8cWmD2y39MHXHpMk8v6kwfP8RPDldux5fWh8zEKbN9THZXOiGUY/Uh50J7iDTZZk3DQU8Nq/ehKTlsg3gb5x/7Csc8w4hiQAuyy/YqxoTKOnGAVXeSTdu1ECz2Xmo5BdT9SOt13lJvyri466Kmhrct9p+0Wxgz2w9jwMY9bamOhy8ejeoxyeSJXxw9n8bPF/e2u+zPx8lW9bSqTIN1O8bvl82b8vxmjszd6aUh++MRHOG4X7rOn7JIkQWg1wR3h1YIEY2X/rQKzvH/P6DIc5JR4IZcchgp41tHJykXaq6OTlVAFXZ1+0MOA3J6ls0ELu0EP8IZ+Qo4BNU1V2eo7aEttwb6Ahr6QB96f+y1wPOH1SS4xprQO9YA00TRdXsZE1HjwANqy/vP2E+L5ouyH/geo+4syoLcB+ht4DNtQXT861ANa8nSdLlu0wA1C95mjd0gcoIyPbUO7zhoTPT65LE2P8ixHt05B/wAzuzPewjW1f8b7qfe91SdB1FMgMSGyihZ/MygGyLE/nx3hhAgyJe3CPXj23smVlZaluSefLBzkaKjL1C4dr1k4OFSxy7qrn0+C7JMlQSg5kScomuLIGea8Fq6BvH/71JHGuRG3STh39BZrfDg5B8fHm5+7VfpNpI2Ulx55oy1uyc4TwdWMEbfldwNol+B1vW3D+ORzBMd6Xk8MJza445SdgwOMW1+887RwtPibMdoeeWcpCcLBQkmC0DN1CD7i5GHoY2ooA0onsgSACsrW0vmtpWxjs6QA18XgNuQAap4UtyImQ3yAFPWA2DZrGbqc0uEkrtEF/QWsbTezFfo5EV7IGKRdtAeY8ZI96P+18/Yt3UxLJ/jq/v/zlb000O71hd4M6eJp4S3cILQWv8ZNRFZT3go6uoF/esemfLM1tU/3atJdBHocwrxSugcc2c/jB8YR38oxXryFxK5KgCARwm+E6bWLo3TSI3pKCRg+fv3hJc+deGfeCmSrnxIOW+WUDnJwNaVjJDASnDdGgkMbHgpvevWrxPmVJBs2k4P2RTeRVy7HK7fUxcGi7Ym0q3FSDvpjcFV/5cRIeUU/z+sHNdLZK0/oo3ktXOin0gV0uHVE+pLagD4ven54n2Kd44sToWlQvXqiRlkJjXrq5FuXHlxxnmr9/ZjAltMKp0qPern0/j7a2mq75UkK1Ak+0o533Cz59My23KpEYyA6h3PQHIf6foVz1eSVcX70wweppAdu8cPtMIVb2Cl2mzHaaZ1TlQAh/G/uPCnZ8tIEpInc768TCigDat6m8jTP9Jat/o4fZ/XXtkvZxjZdWZemdOQky7bsj/vmxQf6pEWM8cgk04FziQ1JcqOOTuqq6CQuRXIjnYX7x48ckvWlfz+k7xadZfsyXVM7N6UrjwXpUW43xaEeUOs+5h44Y48kBlhlZ9g32JafBNHxPXKMcRw0neZFGZDoUKY3stt91DpPXvn71yyuTIKQbxulFyJ0OzOv0kkPKvON0O2WO3SLjdI77OsSBVkAkgO1HsdleP1+dKoNrEDIaJBXi+M2xIC1dE3lMZ2cWNw+BWOB821FvSJdxIFe62/R4daXjE63oeyX9q0BL3T2/Y76Zbpk9kNQmq62VGa+lSv4xtaLfCxQkhrknGKcSSZHHihXk8nH/YTX4wPOyyJ57PS0nHg7TF73kxuOSnTMddb667JNJ/1tShfGA2OUJVN0G7AhcP3biMnAhNePJfGLjDhGmu7+ZW9XDtCyqR43ZeswHuDRtrfoMG5yoYrnRTx+8p5T/OrP90n5AujMDlKda9y/CjriCXx+bsKehP/ZzUeHGCB/3wgJEJ/sHZ1dHD2jN7t1I68AQ+LDO8BOyx217Yv4JYc0WDxgyURSOH+Vmho6OBFMVtUux6vICAo3pbp4Haw2Jg3n+zul8ibWBp1cj5y/X3iygLZQdMJrqMuomyrceXu8lr/6h/OAJ0ZuP5osDXCri5cn7hToR1tgsvtU2V7L5XbookXtqfAErQBpC/yHz8s7MmWc6BykeRvnL5UnE/frO04sPQnCiz3/goRFnZknz+i1WzcjCRKCgz5gePR2LxbnQory4MDRxGCyKEyOIcOBXvNqHDuvCnmgC46tD12/NrQ8lBWkAansB+qoDVUu9Rd1WmfdBsqg66ezRadxqlypS1Ubli4DyqNYIL0QFZOrDGMsqVyH2KHfVpWSKDlvfgx+gV8+hx7XzM4/1Z9w7iqagMvoCJ/8aTwJl9Hp9nJ6XcdlyPByEnrfHug0L+gCDjpk8kK90h3y7j5ll5oxSu0o41Rv60jThC7Kp2/jhCSI0hN9BLT6gjqGvu8WXYJbOeb++66T/ZMf8qhv8G/haZBi2Yxup7i+Kgly5NYvzK6sOBGi10YgE1C8u6dLvDtwAhM6v7LUVwMtD2UMasJLBvH/idDV8UK+hpYuSb3vO+TqOl3G9iUMrupPios21/xNymgD2/eEB5OSJlfQGW0Bwsbp8TcuOiBMrmSVV3JocSJUO0OhgRzAOOFSGai/eJ/X81uIkz5pGxrnYKRN+xPx6C9gP7p+9ZDTFDaV15/unlN2LSVB9BjAjoSzkheatq7MsT6sNI3xp6dBxL5R5/q5EemqxyW1Z5yTwkuvxIpJ3Zj8CP6u0zpnRq9dXFaVBBmdM+Ke+vzSNHDJVyHZQvF+nfbnDf80oZvQUoeb0E0PjaXL6sJZtl5dutB9gcvdNQvlDdoyARDvkcA3bX0QAJeYndRTMF0f0yRMj1M6/SSJlkdvgaH7/+jEL58LaxJu9Y3bQ2N7iQNEEslDbW89HrAvoE1njxfRgo+gLt9z6q7GGFl2mTzcH+4/nT/rUeXfuu2RS8gBLgtJEP0kCJcL9x+3HscrA1od0Ekm+3QEXsu4idBZvE1x0AuQ+ap05lWBNzTR9KMDjUEX2tE0VXQqmBv4gAP0vNAp0EF+DV3S94yO67wMXU7kW+MLW6H9TAZl9s59u3xrOXVk1ZMk0knsUCZZE3pyjJGO7knEqiLpRx+dc9r8uNI+FXJzfhzXyQENwTq6urp+Moj3e1f1zIuLdmzaprEc7RxpgQNMxyPSlfE/uGZx9CM4l/Q5OgW4Z+47zh2+1Ub+NX/qaRDv52j3S0mQUfKQeB0Wl0NCpHCUSiZD8kAkSZDx47Qj1as9lDXUZeGTZS/KgKuDTk5eWWmgfQtHdajXUJdXZz+a6edXVHSihvNAcLQKG1vwCgm0c0JEVnA0IbC10pNjMnD3nb57ZlOMQ1k/dhSZziWcmoAyLtX9LfFiIvdrYzXQ4W0wsP9k2B6yrPFl+ZwAiefAee+gJJW8HVrOHfIdZF89L8o4ay41xZH8P919qDtmuxeyA5Tvncu9zfydEPFxn53Rm1vsIndLh/dk8b5ZHGHh/v7C/dMgMBQPykuQmDtj4cLk70NHvH4rI9AHnxGwV1DXh3ZV/WTjqD38IRtQ6wIajSvRkT0ayivxKr7JaqORLlpnP56aj062H113aHCCNAma/ZsG0iMdTTr6SDe1yX/YROtIOH2sy1X0OU9Ol8vodwx5TejytsALPGAuq4oO9B4+cMY7Go7HZI+brBQfveiAJEmVjA364Pumz/kSXUYbzsHcLnT84Glu1V2j7pT5G8dEiHoaxPu8B2fQF9JDUJAIsv8DY3vGk40EkwPkFaE/yTyOlQn1ns5fEZkHV0fQ80oik6FksyGCPLk6sEEynKbT9ShDVyvgKrz+yuP7lNLpdnUZV6+UV9pMcSIv5YVumr5chm3qeEFTD9M+pbS6DuVoUwoPpPTVeo7x239X7PzKMNloO9XIERp0WF1o/rN3eSV/uLvafpaugsN5MB7elKe6DZtu/OPXVGebDnqu4Ccw6FE0czxge0C6eOly3cXMpPO3wXi+W943r+Q/bDtB32bQPi8V771HuD/d2XNnLNik5NPg43rt4iszFm71Vy+pChKSl6QXotKyFX9SHmXApne6k5MED6CN8+357RbR2nRN5Vl0sU91upAziPXCY+mi6SJ95AXOopsOXD+dMYb96NCPKrqf3vS+5HvBVU8PxFiTxIuq6Wa5D7/7DW7l2e/kd/5ZtqrSJeqajhv6KvVxjIDvJw9yLV0GxaHNXBe0AV2q6IAHHfhyef/w4YMkGZKFKORCE7erdAwckhgahzKgNW7MP3+W+9Rhb3F//OJZYf6kusX5hz7k9VX4fnSrvnAKr/5oBXjmzrOqnwYhB8jvA2wXq0IiJLlbunD8PsBSfMQnDuCgUA/Iqz3fQeBUHJGuWPiXgrwNeMGDuCRkyZUwazeT15QXskEf2mB5ftKgT6o/gS6rgxzIDXTQz5KBmBHVVdDxBcnzlmQrmbou0UXRBPtpeVk99IYMHGteSozQ92F5kvibpDFh2PEZk1AcYgyun/v217h7T93V/eymo8OuQ7eh27XKdfppeouOVheahsoWXVNcLkvkjb8NW16cU6jX+tF5cvNR83wSKdpZxiU/1k99wDniiREcAxKv5pfyrcfsIK/Cx/mjz+UKHOtr0YHeQ90v9JUhzZGHz3Kr7l7i/nTXKP9P3/Gl6beO4N/oibc5Mx+asXDTGc/rtlvPhO+A+I8IIwb4ySO390tYTEKZ/KQEVoMR+hNFOQmhs3gtHGRHGGUPcdoWuizOUZb/KANOLp0fc4QhvFPmNjIc3fT6ncve6y7brxOykLSdxb1mmDQad+aOL3PX9bZx9FwvrRyi7s3btXRZU3GkV5hHmf2mQmf6ot8VB24RHJa2vTUe48LNn+Xo5mu+6dn7CHZYfieF/to4muOY5zLmbIeAG3OrHjrD8QrvCye7VV883a1aiU9v+nDN544R53dnz626q+dO3eFv/eNwkgCh7S8nQcjPkQNcssXGz+91Ws8iCxzvlhaG6ABFOSgkg+dxrKAP7vMWWcrUGVqay/I8hUEOeOkEQFnBFCdb4RRX04aSU6sL02Gb3UCe6uPAuli8Fk7pXtUG4XVdKFvyLFyDNrTduD3I8eMFHSzIvCvH+G3A37j4QEefSaT3091w2Fv4u7GfWLydu/Hw7XmlR2+bphtXczml9tU5FWgb6AQ5gIE3k4d6wEBn9dfCZfICf46HzoSHHEBPCx0Aq2RxvebVZbTr2/v9/afz6lzHViervPxtL3dfOffdsT9oO4dev379Qn+lf8vdqs8dzc5t1Z09ju8RXHXXYrfqc8e4VQ+fKQ6RVn6qftnbNgnfAYm+Tb4N0msXj/gtcGuVfBOknAS54ehyEDMYnI3qr87USeoY4bLVYYqz6DTOy/CrSLlS4GoA2KeNcOXpQ5esYKr7wQPBMmP76Gu5bykNbKHpYznSik3jMdMEm8r2Rtoi+2R03u5Sr+t0Odo4oVNtcJtq/HBchtVyy7Rpu6uvfk3X2dLPwln2tOiqcXQD+zcuOtB/4S9m2MfrCM/aaVN367E7ul/ffkLwAfk4a5+BOhOnzmXQMbzvqODY4OA0ZEd496H/f3tvHn1bUdyLs956Kysr8e7zhSgxGpSocQD9nnMBFQENgwOjAoJMAvee871MAgIyyXgvSjACKioiEmeRoDKDTIL6fCYruozxGeMzTvGpMUoIEkyQfBdr/36fqv50V/fuvc8+w/d7B84f51Tv6qrq6t67a3dXdfeu0Lx93z9JgiBhJNjvFt/d7IiXblH0u53H84GQovz0m3eLnJgwBphejfNr79Qcv4xx9GrmWQ5d2pYxbbrx7qO217R1WV/ycm2wvnRpW+50dMY0Fd/txaj8olc/y7sqJIiRHH1ld3bQn3vp/i8o71t3QFn9HktOv+G4OvuwiOnuLQstfhgRxnSXvf65tUGQfq/4uRjAgTWAPA7L7QS57pTdg0PYjZikA9AxOUVcGO25xnKjLpTHPB1Raf7y4NxDGemSwyU6u1Ea24q6Esb1qMpDfsqbw+HtmNJVymirSy0dR9LB0S7l8hnwzulAJzok+aI/yxDo7qvBkcZCyKK8pnLBk9LxWvNUv1h2wJE2XwZH4dUyrDymIYvyiLOQZVi6HD3pwMv8FGpeu3pYHUJ6Xfmbu84t8dF7HFogBs6fB8gAB/y3GvjAcqSvvvOQ4KdN77MJZFBX34ctbUIntH5WxvZeWy5iZOeCGjEclP99i5sOG8Nnad5/2DYljsLiUj89DaZD3MPRFFgDHxgiYlG0DhWvPXk3P6zVSmiHw42RmyMKZ3D0q1m6jRFnpvmN9c3R5eqbo8vhJuHNycvhRinDT034YKLDcTrmcJDXBgddUrq2uFwZy8G7KZdh2hSnNuMILUxrOSXWYIgaQixtefBWPdcvGN7wHNg+ojYChju2DzB0rXEY/cHXB78ejB0M3c3q51OcRnuBk2uhC7irj3pRNAWWcwHdcViDXvHIZgdvs9nv9LudR6IgCFdMd4vymjUv845pztkFOsfmxDjphC0CD0KXBEGkYYfx1gQ3KrxVOjphKzDhZb5tF8G1pWvRBrkyWB4haQAtjmlCS1dJ1+ico6vg3DMR4WHocvg2uLa806Zro9ty0Yxat2H0w/Jdvf7t5jPKey58XXn1kTuUV7yhW2JBM6bLYtTq6u5k556zRpzRKaID/rbjQ8DDBzfU2HnDKAYyhxuU7z98Gw2C0Ka5o7AQEBl0iwfl28CDbvFzro5O4V8ctK1WGspkfqJwgufbnTDHx7dAPs+WhdGFXhNaHls+8wlBZ9PkI47Q0ll5pF9fMOinb8w6PdrS1fErvrmM9jT23jHdRjZpR4Ft5LahGaVMpQ1t3szblq753oQyqvLa1C+lSa+D/LZ6gK6qS4McGE1vJ1z5EU7zQ/+7SKK6Mp11hi8EPUKkN+B0Kpxer9tr62gEKMFejgC7xffFAPa7xVfzQZBOecoufySKi58J0103EuN1HVwOulwZbXE5vXO8uCFV2rY458czQaNcGTnnb3tcVZc8b5WuWi/om6MbH5evb1VeW7pIP/iTpG2r8iI63/45Ospohnn9qjz5ts/RVXXJ8Q6/R5RDaMsaH5evb1Veji6vs9HL3zeD8/co4LDsJQ1qjHL9yGeOLo/bYfP6IMh8ca8awF7x0cpOEK6Y5oeRnNJ0VHoHKhRnhQDdr0JHJy7pLZ3hU7+CNoLIsHQ5Xocj7bByR6dzN93oWFuGofH1yOEqjt6aMlybRTpX5OFN7HxwFlbaKpTRLC/cwyA3lBFwgS6Vx+u0DYgntPkW17YM8hDG8ibROfBSNiF107KUDnnMJ4x1CfeH+TqCCnhLH5cxSTuHelBmKL+qM/NSXYgntPnEATItBtA+i0ibftqKDjs6GPiAf49pF+zASM/i1DeoPkIGQb552T666JmBXWPTxBe4srhcDODCyuJkjY5ggWAcBMHI8BvvO0orFwU8XIVnOLm58kBbw7ZJtoubpsjDrgaV0xrtFDNceA6eoG0FQ4dZhHtG2B4j4+4+vfxvGj4aOwl+OGOYwYlPUBZC6xT508fv4Awgo8Duo+jq/ytXr+wc5KbAK3aJgiAwgi4KDHjDma9202AzT3fzd1h2raTm+bRMpYIDHA2gw2WHM8525tl8wcFn4KZkFlboEtnD5VGu08XoKvVx8lCOrY9cZ3Asz+qc463ksxzTFqPULVfGSDhTb+Fz+rA+Xhd3H0hTWw/WJyOHvAJbyLM6kLcWl8irLSPRj3ItrK1bUkaOrla/pNwcb63OSblWV6YnlpeUMbG8pL7ZPpTSuGtftgl+yGhPAh1mB4i7ZuSXARFC8MhJMCboYXeCDLqdxePmn7SlGEAciNDvYjdIsJRhZ0infPfhPTEEqEj6oyOUhtDm27cA8Tk65gF6eb4sHWnaPEnT8Ho66KbG2D9MIi9joDmCEV7mOxjJcwbQ0FFX6qnXllfTw+mqbUmeGDbJs/rF8mL92tCFcnK8tp6xfiw38OfzSTcMUg5hHf2wfPI10TXlkR9wGN2wfMraEOna6sQ61MG2clrQ3Xe+388bghrDAx80huD590+/0S/li+2a2rjBfOfrYvz41+91vl0NhOiQ8fRd/9iNhIKDEoaMv5zzFkaI+YST4PBmoBzCnLzloMuVMRkutCXrNpm8altNX974OufuWw43XGfWk9DqFHDh+Qy4jaedm3Vezrq1v0f2PmTSMuPJ4J1NWbz7dBf8qO7saBsE+btL4f/T9cw5uLpbvI22T6D9PjAspjA5iI8jPXT72c7X5RR3Tk48SOLUdE5OjPp05JfQyVs0wTXxkt45UGvLyNFRt4wuIoc8DTpHdKTPyGN9CclX1wa1dInOQsf2yeVlcLZslkNo82ya+YSS59qFdISkAczhbH6bNGTUyknuTZO8nIy2uJzcHC/pmvJI0wZaOTYd8Y5w/3My2uKiMjPP1cj5uXs3Am4R+35d0CMNdEiwwwRELB1Of+H1LaftpMdgue9/pEHehd7crpEBXN3rnCnHRMs02FlOZwAxHf6HDy04A6hvJDQupjpqAAnrcGr4SG+NJnEqL6bbMHE6BcDopKrfho5TgwO9q/fN4jb0esz021CfP322rD1wLzk3g2OfqaMT98kta/wWNzFoDHi4bW85nIwMSXfzoLx4v2fJ+j89+sq69uTjSI+v6s3NRQbQfhuEI0CZO7tgyG3n7uN3F0jjW6clnenwlTFtYAXn/GyUozcTDzUaLpbBYbeVYdOk9zgjo15ergzikt0mTfUQIzgFnW0ZRn9ftxzO8Hi6WhzXb2ods+0iZSR0Rh7aV370kfLatYHPt/g07Z6PobSWzqRtPb0uLKMtXYbe62NkeBzpU5jS2mumCS1vDmfzmc7RmefA6we6HC3lEObocnxt6SZ5NurKha5fOFenv37XRxz4YECEkH4/Bj8Af3z1QeWCBHL12CsNfrhTYBAB7hXfi4wfLlZt8/tP7XeLx73DkFFgFxh592E9H9rm6EE7Ujzqi3Hu5rjRos1L07gWnIcqN8LJlIAyHb3BYaiu9Ja3CRdkeV7chEQHGxQgHWkstHQWn6YnobNtr2/TxDA53eMyQ3sQz3rEulTpSB/DHN0kuNDmoRzKI8zRAMd8wmF0dfnED5PTRDcJL+VauBzypl2G1X9I2vQ1f9/vekvlSKsQCMnv9mA+jeHHBivD7g+368PbtW5RLnSLqyoGEIh+t/he7DDkuplO+aYdn6JHXGMuP/ZPh8bD+PF2G0azfPlGF04ds/oZOtc++XpU6TCyqdZnurhp6zJteZO0wTBd2gYKSDdMXrhXk98jlqkyq/KoSx0d8aQLuqGfVuUtD258G7F4+5tcACQ+1qpt8OM/rj9avwXsAyDBhtG2Lcx3ds8awEG382HvLHTHYWkwBMfHdMoffOIEHWE556zO4/EGcRWWt7GmYdHlZtCp6kZqTTjKIa++3SkvwFo6jgAr+gVdmnmTeuTkSX1UntcvqqNduV+lq9StpoxWdEmbSt1GkIdRIO5HXI+krSiPdXRQ9NvIcBjtSp0TvYmL2i+hWar6sswwIg/PTx2O+sawWrel0tmWm5Yh9UkCHjmcyKjQrZUTnhnIALSBDeLrAiPAf/nCPeJvgCRBkH6388O1u272P7MGcKFbvDG3EwTGD4EQfiKTRkwqX+mE7PS2I42Hg/y0jBkuTFnUeIW2Xfq2ci+76L5UcXi4tWOH+5fDgUY7RzOd53VTpshoG5yny+nXls7wenmGN+gM3e0zzpcJ78eIbZAr1+BCuaGtPG4Ina9Hjs7gPF2uvobOl2voyOvbxLxYLa6RDt/4cLs/xMhJUAPTXrMVrgEH3vcc8nyxVZzy6qhPAh8aFJlfcXrW+AG5qje3db9XPO5XTPsosEZRrlr9EnfT9SZoxXhDpoCTIbuRZxrYlwVcjm4kHB9e5z+LeDXPl8E8r0uiH/Otg5ppwhY6ozz+ME2Zbn0nlGd08+2CDpHgobPFsR4WJ+mErgknMmw5bXktT+4eMT+RR52HlUu6qdSNOhA63VjGyLokcqgj5fHaw4S+Qsd8QrYdYA5n83Npx1MpB+v/YODM6S+8lpFgJjBi/X+/vbFfnvSyJzd9A+SRwbbFFrUGEBmDXucntJ4pPG/PZ4WOiUq4N6DvrMRx2uRGh5Lvca7RHK2VoXROrs33vM44oVxfVpCnbxe+gWM5pI91aScPPE0/lttEM2le2zImobNtNKm+M/7mZ6Zd+4Tnsx39NMpcIhk0lqYveQNIHD56ZIwfRn76aw5+KM9C+fOPHNK8+6NXXNto/MQAzhd30FmYwpNetqU3ejINHjsYguUWbsogb2fne2uQR3pb7nLgcJNsmUuTblvGtOmGt3t9faety/qSl2uD9aVL23I3FZ1DPcTA33bcRAGQr71jr8bdH4Puiv5QA7gw37kX/r44GKLXJ7z0ycEAev8N3lKuInQcu/m/dB7SEVYcn4FX5JCOshy0ZeToIpwrI8JZOSxj2rqMKK9JP4zk2H6SZnvk6pbDkT6pt44Q2+0jvLwcAAAgAElEQVTWyelHvZhXkZcpL9K/Qa82dLZc0lsc04SkAbQ4pglt/jg4Ww7TVg5xhDaPaULSAFoc04Qj0yXPJ/mtPJtmfg6SjjCiMeX4fIPztAaH7/vqAmfj7/NHX8U4paseh3Xb6TsHu0UbJie/0J4VLxlqAPvdznf1ZBhdOIhRoB6MgMNRn+oNIComlTNBkMlx+gbE2wCdn8N+pglt/gy3XG0VpkZsczuFeWLh9OWkzyHbJYcL92b0tsrJy+EmKWP6vMEmhP7bCnffeW4BtIn8Mvgh0G1zY5rQHX8FH+GHV3fD+j+3flntF2IYneruj5w17HeLh8X3x4XQhN2ijHyAbk4vN9Y4meFYjXDOCRrh6L+zecC14bU8hj7La4IQLF/p6nc8xHSxTr4MI9d3gkQX0Hr6JN1YhpHt6XI4U56na4vLycvhjDzWpxEaGfLycvX2PO4e++s0317X0Q4rw8qw6Tp5o9bRykzTyTOcrWeDHhX6lNZc+3sOHH/Ux9BVZJIG0NBF8pI8L9/QZ+W6fC/LyBmKMx8/SoMg8PGlOAZH6DPE9Z+/9tkhAAIDqLs+FHaLX6zdbLP/kbN5HnfM9k/7vUGviI/FMgbw8kPmdQSIirof3/y8tlAqbWiRF3DhDRFwRq7ho3M+0BneiE7xga5OnqMT3iBL9DPydEQbZNi6xelYRpzXhp/tkpNjdQ3Bn6G68eGL6tNOl1h/q5NNp7Lq83j/Yrkpf3pdlYepUywjvU5l4LoNTY5vKXHT1KlOlsXbdFqvpryUdoLr6HnMlHnnqUkApE3gI9A8dvOgPGXnLSsjQFnRIqtZiq94Q1eXwLmAMIA++OGWwfCaX4iD0bM/vA3stRjFCXAwYG3k5egmweXqMYm8trxty502XVv9cnTT1mXa8nI6t8VNW5dpy2tbjxzdtHXJy4vtQ9qXc9eLdzTtABl+LNavPnF4cwCk17mmzu55PFZID7qdRyUAktkJ8r4jt4+csuLMTAIeY+ESx7n4DJyP0aal4SLfo2to4gidczXirSnDOmRJryMNBgrCCnvJZ32tvLY46udgkFdfBmioF+Eo+oX7kZRh5Hp5tfUIvCIv4a3FJfJq6drKG4luTJ2ljLa8beni3R3a3pPwhue+uU0nLKNFwMo+k9SF/dRfQ44JeHi876frysVbj5EgSG7nB3eAEOpOkDgI8jcXv8Ycf8+gB0+16pSrVxYne0PXlBh0i+9LFNhNfW0Q5NSXP6387/t1dKYdk2lC11nlwZ/hMF3Djde20odgk8C5aXVUtxkurE219/wJ1i66NI1TZffsy4yxAXf/Bc74uW/78tgr2fWhJ0FHC6El8AEDGKbA1x6n3/+wa5d15qqbOBbmix2b7J7Pw8Gosh2Ovj9Afkez1yl/dv0pPsihw1/j7MfNdtNXm2fTGJbjWg0B6R2uLa/Q5XhHxWkwJKtfTRmiu8kbhZd1J6QsK8OmLR3ThKPQsRzLm8NJPv207j4N46GcHKS8XJ7F1ZbhnifS1tLxmWqAk+jC8i1sqwvpCCHDpq3MNN1IZ9qmkc60yah0lt6mqWcOx7wUNtLe+1Yf5GBwg0EPC9M0DKDiFsp3HvCcEADhd0DU94ep8SOrdt3sd72Ra0r0u53j6qLAMIxfuuRgN6qhEYOV50gnxi0itI3ozt1nlIuo5BfXGl4zInJvSSsHw2RcC85Dg+MoM6Jzulh5ZkoT5GXovDwtU8sN5XHEG8uw+WyDBJfVL9DEAQLFs+46wqpvA6+L053Xqjv4EnmmXSwt075cTxfcAEoT9CbP8sK0/PQ63LugVxsa8o1CS56lgE16pHnpdU6fNjQ5vmG49nLFAJrnKtyfdeXiXadNFABBJPgtL39qNQDiIsH99PsfTQZw9conbcOgh56mGp+rj0CIzOdlWOvm9jaNSmJT823HyxAV8/XwW1PKx46R74xmoywrN5NuvxNEjdN4ZbXlXQ665Sgjc09l1JLDp7h2+mF0kN6LHC6l0WvLa9P1uuSekyC7SYaVOQndJLxWB6aDvKWqW+5+tMWFtqW+KQz6gxZH4AcbYe1Fu/R/fObocs12c7VBkH63c12TzYvyEAjp94oHdCeIO0vLr6rulGfuvpUblTnHrow+tIJi1e88tVIZOi8JpbLY9nLXW8rF+y/QzkCHK+Xx2kGMZqRhDV5wNl9GPAkd5cGAmvxaeZaO9KZMKwPp2l9SrtA52SlPTpcKfY43KcO2R1RGE52VW0OXk5vDRWUm96Uur1YOdWlq44YycnJzuDq9cvgU11Zeyofrtryt6GraKsebw+X0q+DMczJUhqH1cmpwYjPkCPxg7GgnAGEr9Dp87yPgNA8nQGvgVk998bvYYLfEhde5ODJywy76veIWDX6EwwQZGAH+FzecJsZIGkIaH0PltbEld6u4xdgxTYiK2TSMIQwnjsN2w2R5M/DGujKWHYcH1Y1W8KbljX9C4uS+uDagf3AkHJ4RvJycn9bd5yqubRmbirxcPTbmNtB7LH3VPR8ycGE/SnBwk/23fMzILXVh4MPgZCG0GEIYQRf9NXQaAYaxU3vFQIjOZLEgem7VMJsX5fe7K05TywnmOAgC4fe9/UANZEilnPHDSa5uxXaALqpj8WL81HlZdWoulIsyMjytXLzv/LgMlmWcumqIbAClGgQBTRs63zFh6CyPDQqYNOm9bJPncTmdW9DRXzKsjEjPOp2NDsPkMZ+Q8tVd4dqZhsveB+BwndTN85OWdEanCo2Tk8WneUZehd7mmfTQujldG+mMHp6OZdg2aMK5ciK9c7yWrq28OjriKZPXbcttc9+sLNNOaT1xLW139xne/xfbDRf9tbYjcxwWBlKfPn6HbACEx/oNui32AFsLuKY316MVFQPo9tUx/ecHbONHajLyu/2E5NgafsSYkOFqXKc45sVQp8nHi4NUfIoSQNFOxlGidji8Lat44qSRzY0mXnhlKmI6Lm9eIi8XqLBymA50QacHbzmz/NYHVpX3XXRAeeuZe5Y3veVV5S1nvKa8/ey9yy+s3b/82ruOKH/0iRPK/7zn/IZ6BHmhDOgd8KpDes12qcNjnZilqaeL5Vs6Teu0jrIILV0TjnmjwJzsHH9buhxvWxzLIKzjYz7hUtDlZBNHiHKZJqzThfi2dMPojRwYyM+/2RtAbmvLw3q7cd6rttIAiKxWcR8/os3qFo9hh5u1b0PT2DM36HZ+qkPIOAhC3NeueKN22DtOqvj8xHhFwY8wvx8vD8PeNaV8LwB+Q06V5S3ifH7wMbjRmw65A17fNuE6pWvrSNbpWpgWx+UExy6M3v0XHVC+79Beed5uz4h+5+4aXyMfuLWv+pPy48fsXH7rylXlb79wobwdY/nQP5QR8trhcm2wIcnbkHSZdlvl6ta2jGnT5XSZPi7ua+FZreIn/QbIL4fuAGmxBS5nEfvdFVcPuBXOBEGIw6Loh258k1/ASIelNXAWp45MdVqShjheW2jz0rTQ3XqM+g0RRKGjnH66xOFKw9VIV8PreVhGBmJ09Ovbzy6/ccWR5cfX7FSev/szI6MXG8GtKnnnJkbykn2fV951/n7lv918hrxk2ujQlkbaIlOHtvybMt36aJv1Ueak93Cozkn/k/JqcIuYPbpAh/RrzBB94MMFQXI4R/PVt70qHIGVfP8DwZB+r3NOzr4NxS1sV+xIY8fjsGT054wicNesmtcojXNI6hzejfYY5JA5/Lg4Eyzx8jK4O0/x0WQYI7xxdMoW0tPGQf6PP/mm8vPn7CMjPW/0dt2qPM+N8s5FGsYtiwNeR4OBLsZdsMczy+tP2q381Y2n+zpNux6jyMODrA+/TnPA24hz92EonZuGb7B0uXpMG7e+2iBXjwl0Yf+z97IJxxEggxs2OCo49HvaFxcIAY0GRgblJ47Zzq3/C0EQ2C114WFL3Ij+P2sZB73Ol+n3E4Fud4gGSHRq/N337h8U9MoiyGGMnqsAozm2Ar5yYihNhIfXHkJeCJ7wbeEdp5hyYz3RvWer8XOOXtwInUY4Rz2drwbyBkV0eAicExdTBEk7+ONPnVheefh2YtzEeO26VakQ01lNV2FTnhpN8sAwMg2I6fFXLjlYR4PUhf7KpB7U0+rMNCFptN7Veno60wZZHupCHUhv8CjD85LO5udwrFvCK3IsjnSJvFo6y8tyc7hEnm8Pg6/gqEsir1YXIyttI/JIGZPIs7zUz5bbtg0gB5saEJg0MnNtILonZVRwTobw33GSGjPfz9nHnZHzeDWEYkM8blBeuOczg/+PO0A87DyyauuWO0Cs4WMa1nPQNcdjOQOoI0K1su/Y/zktnZhxkCPv6NQwd21e9L2AenkSScYOFNx05+wNzn6MXnSEaHF5Ojp0CS8q//FDC+WFr9xaRnU0UhjhIU1o04243QKP0O0Wy/E4R3frWXvqA4gHKPsLI998fh0f8JPwNsmd5Y1+L9hmG8A9wYACBxVI33OrNO45q+b5o95VaPta1B6tgyDV/v7w9UfJAmiO9nzg1o0AB90x/X80gID9+c6VDHwoDGsDif/BBw5chkCIG1GOElzB0hysT5Q3XeyAzeFk2I5pXfQLQYaf/dWby3WvfpYELSR4gQCG898xuIHrFGd9gOPQWf4vvf31ati9jkG/oPeGhEvbE9c5/aZNlytDcXHQq54utGedzuufN9SlrS7t21m2r9b1N8y27kewLievPQ5RYOv7HyX99SHfAOl3O5dYWzZWGmcE9nvFj3WltcypdcuJCYx8dLDSVwIOTFSCjkymbcUiGufgJF2UZ+Q04VlWDoqPQYb/ZteG+D3cTTIBgZxzl7j/uuf88j0Hv8gFMKqBDGukQjpHV8XJiDEJhJyHUV8F94wSfkH4HjFiDaNWUzfvp0txS3c0EtuIUPWKy7e4HJ3FsW4WMp8wl1dXBmktL9OEMW9oK+YT1tGxDAvJQ5jLi+XVt1kjHZ9n/0yonEq5MFaZ593SSRry7r/QH1Fl+1XopwNds2uDkJRtyvGyDc7rgHJu10Aqy6Cd4DVhKNfZlpsH5fsP20YCIBj5BfvEo7CKcjBf7DmW0UuZBtsVe2KVNfyBaWAEuDe99A/K33x2lZvLOwPofYDBH8gPHNtgCXF+iC1H3LjRnjg7kcbwN8jVdDNO/Ix8e91zlgsiYEqhhg/DcLy9cD0MB9o7z9vXjOxonLYaG3cuprt+9DiavPce0i0fu0/fvqPUo219s3Rmyq35dg0h23KGk/uxsbcV9MfUVPqdm3q6Phi5p+CTv/VYCUCi3vpj/7LT9zxOjCwGOVzgLD5+GLgw3WXfT3H/+6JX6TY3P93VIEiYBncexeAttWVjXw96xVd8QET317nV17pT5P4Ldjc7QRippUNTjSAq6oMWPu1o/bVW3tJ5PhsEEXoXIXLBF09nZIkcHMyAG+Scs3TeSkeu4Kp0v7zhLeL3U59fHKBQHAMfTXmkIUxp02vQ1eP++p2Han0S53aoW6iH1NvUX6f/mk96to3Ns+kKHeURJu1o5VXSic6Sn8jh/ZJykzyvC/E5eXTw0yFPWl4bWCmjhtaXS96Uzl1X6HL0KS9pLExpzHVtGZY/bYMkz96XSB6CHRg8uH5EA8X+RYh8SWP31v0X+P5l5TIdyaced50mZVh5aZm+DOP//84VryuP3X7zyu4PHaS5CHCvuGVsY5dj7K8sjjLW1YWZ3Va5blGu3euZ3pJjhIZKBZimteFCPulTPK8boHmDVMsEH2QvhMXT6Cx4kAyUtIwGMZLhmyzA60/erZQRm1vOYoMcNu2jtxK0UOM1NAiSBD5ieTSWGCFqmmX8xWufXz567wXurRt01RGtvdbpnBgUV29N6xuabSGjYB8csm/vWJblrcpMaYfJIf1y0OXKmDaO9bEwV4bNZ3radJRrYcsyKh8ob+h/qRGkkY6eNauDS4uRXWNsRl0ZsW34l48eWp6801OC/fFLXmCLuPwFcYoV++fs2Ng4/WBS5yFOgRkAsfAfr3id9wVyLj86dJuiOX2dFrzz1MhhG5zHOjzX0WBI4xo/rMGD360uuBGmsW5NX00QJKWDfy+Ho98vHyzhVFnL+tq7Ds8GFPDWpf4BtsVV2yDIGD2vrS55ump5benwIqvqPV1cXpdqGdOma1+3avtV2wQ0QWdZ7iJ9Dv2wTV80dJgO33dept1jPSQwKcflOVfX0D6uevz2xn550d5b1x575W1Rt/NNnGo1trGrY+x3567wBtAEQeiAvPLwbdWiy6isGgihQxPQOzVdEIR5xBMS3wbmeIgTX4W8lfRm0O8XOWSdf9A6nD9/7j6ZYERsiNSYVXE0ZhZiJGmvhZcLpqOgR5UuDYxc8YauG8nGTm+O5nzdzMguxsVOcVvvmM51EDq5a2C+3LZlTJtOR75xPdqW0Za3LV2u3El4c/JyuFHLgO/vZA1gYmSXBCFlhgX/nMVL/w049LfFu0+Pnku5By4IIlNlt/uDfnorL4fT/EF551mvkJGf2hsNfPgASDj66vF+d/Nd6mzYRHg9LLV4HJaWawHF6rrdITiUEHvzpBHgP0Bj0FfHNKENkjicTFWZ752u7i0h8syUdmS6BbdImgZQOzU6LY0hpnR4QxKH6/ccPC8GS0eAapRkmupGcDRo6wv3w4+fEOms+sf1mB4O05f27Te83GnLy93LaZexCcvDmj/0K9u3xOCZvuyuZZdGDR0MlqzFvfvMECBBVBmGUT5+ZOW5oAdHm85uSNDD4WB4H/nM0eXJL9Opr470YADtlNftBOkW6yYycsOYB93ibgmGhNXWUTDkhjfvqLtAaPgEavADFYGFp6MzTocAidBFAQ/HE+Ec/Sg4FwwRP1/iIM7hcCiBTH+zwYjgn4Px01990CLQgBZ0KW16TTrKJozpPnvKHuq3pGPZQdYH0y/+PI5+GtsGxNmAgk3n5LTE+XINPXXS6WHQkfgcTw5H+mFQeFnHGj3qZOTKJY4QvDZNWcQR1tGR3kLhGVNnK4dpq0MFh50eOHCk0l9Dv7R5TWnt566vi0FdE4yqkU8ZgT5XlvoAv3TBHibo4Y7oq9qgzw79+PkwAzcsf6FX7O2jwWKB4+NnztrtaSU+UoxKbYg/vIXCyARvc/15nLsG/uE7zmnc4ZEGJhigkNFgdneIGq/GwIibDquMYOz8VNkbW4xGtyrftuezS6xRZD3ysOr8Zn0DPUe+oU00r8obeFLapb5OdUmvc+W3oSHfKLTkWQrYpEeal16PoQ8iuLceO0J/jQMTy9HPLzvwuXHgwwQ8dBpcfKX1h4+GGbmmfDkqq1d83zscsTYw+f3zhw4OQ2l5A7R1di4H3Rrd1+imuzAE4adTR14/fMdb87s+jK8uBDLc9NgGN7J04Tgsz8v1gJaXByUMwcEwfudDC6YOqE9cD9anCkenywWPgtx28jD6CDxuSp3BpTR6bXlt2t7HpW2DvF4sP6dTDkd6C0enm/R+1Ack3DR1aP+to6vDo48zj7C53//n51aXx+2wecXOBLtTPNRf+XtPa7JbU83rz3fOEUekczwyCELcXWe/QpefOGcpfAriyHR+P/ERuIaVZSrMFxgcqur8DMEU9QvY6zZp5zc0ZcgHm9wX6qzjn/4t4jCyoo8vDlwMD1DE9Nbo5XhDfh2f4vO8t5+9l9sVoo5wWw8GAQTnghdMj0RHX2kig22VgxZn07Z8m7Y0demUfjnp8E3s73/sODnY9gNHbFe+83UvKC87YNvy/Yf2yo+v2bnEffi79x5VPngr98qa+5EEjlgPqz9xhDbPpplPaPNsmvmENk/TLuhRCXi42ZvpM9p/M32zwqt90vd5GtBcsCTDa/nY///pygN0AwYDr9buyJFXxUenauCGCcOJ0cH66hTYXmOLivj3xD8H/52z8BbaNBrJRYPl7UBDuZQ4WRaD6QKmEPoWxtRO/S6Kw24LHnMl6wA5UvOjM7ubQ41YlQ40beiwLKYNXVXeh45+caYeWoe4bpPgOLVK20rbEKOi0H7EKY/3ZVXamXQ53g0HB1/w19/9xhI7cMQ1IZH82EerEXrF4Zm5+qgdym++/+gSRrPaLpPUbYrycLCw73tuoCB9T/13uvvCraN1fXk4TqfHYsjQf30/19GeDHhqcc4HCMPreQclNlnAvoR1yFjnp2cSALfQ7RwzzGZNNR9rbAbdzkN65n7qkCzKU3fZsnzsptShaYMftqLa2HSI6g1JefWNpMbR5rnhdOpYtYERucFofMPHtxIeADjEveHTKQgdxP99/9ryotc8OwlY0C9HGHeEEOxgPuE4dDneKg6LolEH6h2l6ZxnHV0AgA5xQt8GpLd0VnaSn5bldUjpbOAhkcd7YHmZ9sbT8mfSvh7My5XRlOfofXlfXFc+cPMZcrI32jfcV9zHdj+M2v9y1UvLh247yz9nrFe23Zp0zuk+jD7Jr7SROYnF9z/jux8dl+njad901zbwYdO2TAZJP3Xs9iYA4hY8+wAIIsErlmbZS5PVHHSLO61FTtM/+uDrhzhV9U0xmQN1MhlyfiAeEhgHv1ZOr4HD2/vivf80PubK78gInYDBj6HBDRf5raMjPsgLxg6dSUYfpvMxCPP2PZ+jBtDUQzqYq5uOckO9bH1Ho9ORSyzPjWZc+9XLy/HGOsW8w/Iob1p0Kuen151c3nPha8v3H7ZSlz+Z9q4zfLwPhCndpftvU2I7ZWi3Ybozn7CujswnBJ1Nk484QocfKfDhpsXGQI7Sd2WGl/DC2OlIr1n2n+/3rGj0Z23NoFcsHrP9iic32aolyVvd65xpp71pGie1ymiOo60NFd53vnHIx05odEg8vGJ8MsEI4r1xEprgp+Nujpgu+Pt8EMRNqXN0pNEy8rzvev0L3SjWTU9l9KXp4LCP6yZT1pHprAybHq1cjESCXtSzHQ4jqDa8o9DhPn/vI8eW8OuxnW27WxzwcFVYHNL8ifFzzwpl4Dm49HUvKB+46Qyje7Ueo+g8aRvIgmTfJ90MyV/bQIUNULSlszxNaZ0WN9mJX3zssOaPnveK7y+JgRsmVBdFdx5n4EMMIJ2UvU55wou3KP/900eKEaQzk5AVVsdq7DRFnrwVjAM24IITVnBCk8OF4AjpCFEm04C6at04q7li3TmtP7z6pf7h5kM+GQwGUv1GofMMl2t5A98Np70yCoJgNMsfRgRMEzbhbJ5Nk3djhrn6wPh9+c8PMveYbUyIdkaaP7Y78wlJZ6FNb1VefuC25b/felblfkyjTXN1a5KLk9PZHxWGfhTwbXFpf8vxBRr2QfZDlpdeA3/tcTto9Je2hdB9/2OhW1w1zFYtWf5Ct/MNrAms2x5361t29k5WMTZ0fjojl+I0WOJ8gjBOoBcei2OakH4HGLYxcDjYMXLOY5qgP7xl77ngtfq2jwIU+tBr0MKluX6vlk47jkxj3SgijBDGlwejic9qWp3RqaH7VHF+eh2mUThIAZ1My9FpFXHS+RgYcXRtcZCn+kN+2M6FekndhuBS3jr9IOvvr1xljF9wOfA+oX3tlFaufRBE3SApDq4M4PRnXCW7PaO84g3z5X98/pyh9ahrg7Ru2v7D2yVtg8W7Tounn9ziJoFHNyVFf/IDEcWhj4nBwvQVafj0PA5Grorz/ncjz+KsPPEBOnn/cf3RctReCIDYHWi6C2RhvrP7khm4YYL7vRWruCskKBmclGfu+kclNjAHxyaNFAyV/rQBacSIT68d3gYyhJ90hKBjGQkuojd0+LocOpRzMhPqdGRd+ZNrT1QD6H1BcYfQzjENnJVh0+xAedxfrn6p6A99qbOFlbo5xzjrSVihS+RRPuh8mo55mZbm8SmtL8/wpjRWl0qe5avRpcJTQ4flKm/f6zmRgbPGbqnSHxnsqNFh1iWnn3km69pc6lnDO7QNzLc46MtD35H+6Ppm1Edtf6UvL+mP5FWo/Y84lQVcWoahi+QtlF84d9dq8AObLxgA6c59Z8l3fjQZQay87neLX4hTMgpTu5B1r1N+4517u2AIAxaE7i3TyhGa47H8E6Qx0oQf0DmP+YaVToiHy+0HZmeQtz1He84oepw3knZUSANmcDm6HM6MPurK+OdPneh1tzpLp3H6s24RzozOiCdd1AaOjjSbEsQX93hfpwHrgiCpbNzLr737CH1xuXu07O3qv/MxQd+hIRwTwijCQNb9LnzNM2qDH2JzVnaOa7JPy5K3emVxQRoAsdeXH/RcnQY735tMexvTwx2jw2Won681nTsxGh2/+ltX/u93vEFHgX4dYJjipNNYMVSk89Og/NFXnncIHWRauUxfd+KuU9v1EXYUVJ3zGLXl2qUdLt+mVd5p0+V0dlPrL11UItp7/u4YVXOqGiDvC9td2rs1XXg2yE95hMBjETXWFw5vh/p6gHf0+3aR7oRq7IPsP7m+mMORfnrwu+/bv2Hnhxx88OBUT3we11ouzG/xx/1e8ZgYvfRs/l6nXFjZKX9yzcF+Jwjm+/Qr0EBZnPoDqg7TCo33TcS0wm/yWJbFp7jFO09xPifXCY0PEL6TR+46Vz6GxAd69OBF6FwxrxsVGgMYyrA81TQW2/7r507T6bsLdAS/US7wYX1pJuhjgyQy2gu8tfKa6JIgEkaV0snZpgbqiNMZJauH4RF+8rBcV0aU5/hFZ9JbmeR1uL/6/18eoa1ptNz9kBE+cbbtY5wazxinMofjwPuNK470PlTfFg06j3Q/2Aa2rXhv7j49CYDYPtQcwAh9x9LZtMoKdM4oOv9/1A+zODWwVx6xbfaD5ziFyp0Cc8W4NmvqfKtXdm6wPkCmCd976Av8MBcNow5QZwjhWyCOxtHjXONJ0IR0S4C77fhwSrTrKOFh0zfw507ZowzLH8IDvr5wnzh2Fz+FkpGAeeAxnZo+Du4ADYCobJSxceIevOVMOeWHU1YGLTBVXU4clt1w6rucbbp4x0luEKKGS6aiPkAxGU6ntaaPer9eC8fusJ0AACAASURBVJzQLpQ/+uBB5cLKOT/9lcGVPYKv2ymxCmXqhmxcgQu9uV3F2PGEBigrW1XUYYm82xARpmFzDlXvEPWNxCAIjJ0LVHhak+dw4mBtQaflNsiD4b3//CiIACcyHfaA//DBQa2/iAuX8VbXH/x+GrQIecEXmKMjvfUXxbxxEOTbH+w7AxT0THWmI1wN1fToRC6d74RiDOMyIjo6/B0ddfPQyiEtAwE2jzgrx+LIa+5fWgYi+7ad11cao8WfXHtSNqhkdeZzKMbS1c/jWF+2EWET3W3HhwGJ88Gp4VJ/HNPSbxIfXS6POAY8LGSaskhbdw36S1777BDoYMDDwEFvxRfHtVVLxjfoFt+0K7Q1HfbvwQjefOpOvuFRUf2NEOBwIfbASxmTw8W7sFIfHTgs8+DbGfCRO8/VD6K7wISMGhC4wJIIF8DwOBMkkSlRho6dLstr5OXo3rHf8+SrcFa/prROrzSgU6FDR0GnQd39CI+4fFtwJEi+eljHT/mjwknkKS+2N152wDZiADnas22c4iTP7f4hHWCWzt23UehwnmN9++XaZ/I2wLl/S9GHpiHz/vN3S/b9uq225vDT/soVr10yQzau4IXu3IEcqjZBHJiKhtJpbxgWr/drfM/AGUAYQf7wJmb6qiO290ti6D+iY1s7hfqLAs76j1yecabn6AIuTLN9Wc6w4hOd1AkjgZB2/rQMLkc3Cc62Syi/qkvbMtrKm5QOIy62J6CMvBMf7Cg4K0vlhQMtmCcGsaaMta/6kxLHrqEN29Yt16Z53vAc8x7FO0CG9b82/dTN1pz7SmZuPj1MfpyPXR/4xG6T/Rjgex+bbfY/xrVTS8an5wR2vhgdjeVWa6c4HJcFg8fABtO8xk4QGkSPE3q9IR6X0AHPXSSUKVAWd6pMyyv0Vg9GgyN/WggK3HPh61w0tmqcMCLgA98EraFsosvL26q8YI+tywduwjcXTCCDzm3g3AiWAYIIVuhC3UhH36eOBimvhs467NlmVq8EF5WR0DHPQtbR69JCHvktr8Xd/7YDzH3SkVy4D/ba3k91XwQ6vMxsPl90ln8YLsjAKgPqmMK6eoxN94VzfN/T5x8+vzSIoTj2IdtPqumUN/Rr0rIvW3kpDocov/OA50S7PjTg4c4blWOvZCH0q5fMiE0qeE13xXP7veJhWHBMgRWK0n5YCxy+HfIP73mt3ggzGkSDSSMNwbHx7EhyGryLt2NHBaeC7PxuVPPFi8pffPZUNYCc4mIEwSUqy4S78S2vCpFDGruKYQs606D50S2NyBi8kJXK29hwCB5Vd/DwiDE1avqSWj7cB4/cwU+D9QW2hO2M73K4wQT7j4d+F4e6paZJJz6/pFz1A8JgDsp7ztnVjfzCdz5oQ+R7v7IAesVnJ7VRS84vU+FusWiDIKyIxWGXyG8+uyoJjHD3BgxhNeiR4vTGpXSUwaCHu/byzMpzF0yR3SMcTeINmXMgOz/Ztce/osGBbgMVTBPaIIhNM58wl6c4rB2TbVTOb4epkBq2sAtDcE5/5OnUyNDR35fW0dGSh21AGMl15TLPl8FyGyB1trySZvmpXkZWRQfmteBlGdiPK1PSjL9uNHzuftl71z6NJU3yWQPWx7bBCHWzbVrbVnecmPX/MTiBPiX9yuzYCLjga1eDFq5TGitPDV3opyo/XP/iY4eWJ7zkD5oDH93iISy5W3IDNo0CVvdWLAx6xeOyZYXOS4kQh6AIjCL2CrPhYjhCYMQHU6o3I5bZLn/x82/2b2MxBngAze/Xt79VvxSHEV8SrPDXNjBid3Nk6D2P6ZCYaskoxJUBmkv2fV75s+tP8YEKq5P9uDnxAQf92znOMa0i/4YJU/3S6/heaR1AE+jWvfpZtQawbWBjNEPZzhD+7Hr73AV9q/fB5sV1q9Im7YEvs4mbqF1fGKf/jMrz4LVvLC/aZ2u/5AV2If3Jur/e3Kpp2KZlk9Hvza3qd4vFJofmm3d6io4CWztN2zhlg/+QU+WRoN8brFNgvEnpQCb8zV3nlredvZceluqnwOrz0emVS5uAB/1HcLD7dMJLvDeALv/qI3eQo5TwhqcOAW7YuEl0Hs7LuhPyngFWcTAQbOPgujD3w92buiAIeQnzdCEIEsqo+gtTXhxokdN5mjgcgDBSX4j6ZRrsGLWfxX0XhvKbl+1TnrbLH7qpL78tpK4zazf63eK2DTLwMcyaDuaLQwe9zqI/MguruG1gpNspv3ThHn5VOm8OnacWIs86a/U6xpE+5KlDVvHqrLV5Ng0avR7It0zFySx+svoAwH/efZ6cJnLjaa+So47YMZogF0430TDvHfs9v/ybyw4rsXRDR2f1ulinOP10FVwSeBC6hkBGmzaoK4P4YWUwn5B8gBbHNOF4dOv8UiZtY/Xz1Qc0jHGUoEdsyNTAxTjK5T0MsJnux598U1Rf1s/Wl2lC0jS2Ff3DMvpb4/paErjALCoNhAjO9p8QYGQ/E+gCjBHO9yXlR7+yfQ2nxX/mpJeWC8YWxAEP/eg57Ea/WzywrB88GmbURs0f9DqXSuXcSm4YQB3iqjG85HXPdj4HDMvRUM53x0ajb45QhvDu7eNwvBHS0BW60eUt3neuPowmUICHTh68Ck5HGhhd/OsNbynvu+iA8i/2e34ULJGplYsaytRWRnbsfG6663DoMO8+6EXlX196qPvcpU55MOJDGQpt2uJ0BDScjjyELeR5NwCMsE6tCKN2sXTUuRFHHRB84pRNR3BSj6E4p3tEV4+DK0GmsM6gRdPZUXDGZeHl5XDpGsJcGbtuVf6/T5+k97dlPaK2clP8gGMgz7TpnaeKkRPfHI2dGC/1xXkDmODEcDmcTG+H8Cq9jhbjfqk4nA511Rtf6AMe0cfNZYBkPniOrbTd4o2j2pwNih7HVQ+6xaPiDzS7Q8QI9grZK/wvHz3UHY+lBhANnQY86HQNDlUEM4zBRFqCGhZHORaXlmGDJI6O3wqBM1qMTjXIgKkJnc5MEz567wXlF992YOZ7Ijl/kBpAOMIRofy/H9bjucYpl/ro1DHRb4x6pHKs/GwanZftYtPEjQHZpsPkVuhqyrry8O1qfYCRMax8uD537ybFhUCKHJlfo7Ovey4/187EEeK7v+6j59K3fPAv+AJtvxJDZ2iQ1w7noscJL2VDxl+umvc+Ponumh0etBGEg27npg3KmI2rzGDlihu8Y1OCIbGjk4uj2ciyls80ur9udOC6ITreVhFvuHkx3k2fI1p3A2EA8fAY53n+OoxYND9cY1qCPafXn7ybO3UEUyDtMD7wsdszykv2fW5557n7lr+8UXei1JWj0xyMllhGgPbNT50tzvNKncjHUV98HdcDeUpXp1eVnvLaQis/La+tjCa6WD7uhzd06egsHcG5a943zzchXSoHo/744/axznEb2zybTtvA5N15Svs+EfWHur4zHh7urjADdOf6pUEPbx/mvjPYtthiXJuzQfENenP7W6dmmj5xxyeXv/rkERM4aDFym+LvvvNMsEGnaBJ0gL8MPpWMg93jPE2gw6kt2L2Bz1e+79Be+ZHBy8rPn7OPjPbw6U3PK7JZRg4aXTxtAy6ji+pP2YGX09i8LoEu8I+Pw4gmyKEuOZijmwxXPdrMrOVsDEqZb4F4d0bgpa8PfkEf/DDyiPN0GGG6fHx3BkZuKdp+0fn+4v6BmVHaX3K4lAbXbeli3l994vAS/Vz7PgMdhAyAEBbf3Kj9fqn15cGp0Y4QGxDpdcpLD/xT/ZQmfX8S9EicsAYnvoaEljjrkG3C2bwo/YVza1fmpw5nXEtnthBp+gxdWuia0s5ZXSuP+YSZ8mrLMDxi6CyvyUM9vCFs0jVXNyuHvDkc88aBNfJ8nYbIBN3PP3OKjwSH4IcNUDBNiECIjt4DfQiOxDjyEJLXwirvZ968e+3zNkrdcvcf37yx/UHTSRBE+tV0cLYf+XJvHpTvO2ybcLyVHGlVDYhq0KNz/REv3aJIbchGfz3ozq2T74ckQRDi8Ga46ZSXabQIPgRn7AAlvYw4fDCGhkDfzGoYntg4Tk/V4HPEgjaJ22XDpoPeV7yh64xg8OFxZAaDxinqcuG+c/VAXqJL0aaLtx1nDKBOXTGK88YJaelbeRz7oQRJDJ3iq7wi2/njWQaWu8jIz50XiqAoXGLycXN/hmjxMJbObfSGrq4CmM8PesVDaAg6Ofk9EUIcnvr3l++rNwSN7X5yg1zjE+chDGSFLuCYZ2GjPMi685TImY+pCR5O64yu4BhkyNElzmvhzeHoo3N5lTJk6hjrodPJZhzLq8ijzra8XBm2TjZt6lCRbfIq7VaT5+kSvTwefLZ8m05l2jyb/tK68m/fdbiP0tPYybq8Gt9eoIFxDIGLGB8MZz2evIRblfjoOtwgUR1dPXnfcnkel9RN2oc4vMilfwS/eK4f0DfO4+l8/0j7lfMPDqOz/P/5uVXlW3d/uunzzv8vAVF3bF63eGhVb65XZzs2GfxCt3OMD4akzk/3Vjh5p6eU2BrDm7I+4CIWQ8N3ggcJndEHAoxj2eWRppaOnVboHb/HNcuzskM68Hi9vDxnIDK6Bf6YxsvwdazLBz6UHeTlcLEMpd1w6LCuEh+ToqFiUIrXddCODi0N8SlMaZhv8Xefv59/zkZrU7Rnrk0N7vY3rdd+hL6LAGd9n1djCLuwyRi5porIiTHzxR3qCDU+ACyINL+1ez2zxJtD3l5uCrzs6c+f7IzfJE73to79DZ1uY2yDnM5u+v6li+QIKnyiEsYoTHXVP8fghMVj5Gevkc7TtZeHpU8P3Gw/lj76c1D3TZBFd+rLuEEL7W/jBTzYV//pygPKY7abi/q29nMT/OgWX9kod3k0GbqmvCPnn7TloFf8vGl3CPKuOXpe317eB5gJiLhFz/Q1NEHclDS/gkvkwYGccyxjiQkDH+L/ovM956R3ONLhLZ/ySl7COw4uKoM6OWjlkU7q1lBuRJfIkzao4EbYqZLw5srK4WrvRyIvTxfr9+vbzy6vPHxlzdFWscFTQ5kaN1xbHK8tDnKIj2V+6viXR8+XPBtj1EPrqjMVphcx+mPfsc8+prGpDzBL55aJRbw5XCyPfeqRzxxdnr3700Pgw+z68H2/11lc80SY+qYGcfCiuVcMup3H9JgbM/pzkWHuHMFX4bFtRhrVGCddAK3r/tjguotkOK4tL+kW7znTOah1yqGRUjVi6KDSSbnjwUVRN0mcM9w04Arhe9QpV2gXto2FYfrs6TBNT3lrcJ6H9MadEPKCq8LiKmW4JTisx2/uOk+mwzKik9Gg+vIwLV5KHEZ/+DJdRb+aNsjSuSmwry95731r8P25ZSviSnInIsEAap9S4yU+vVY4Rw+j6Axpyku51x3/4jIKdsDnJ26vEADpd4sN58NGqZFa6ut+rzglrAR32+Myq8KvOOQFJb4QD+ctGt06cevSER3ebjW8OTqZMthywI8HCn42/sQYhGs6qwlBxzSh5zV5ni4nL4dLeClzOcpgWTAc8kt1MXih5bV0StdWNs22bIIpPWWSZ1h+Ex3ynDzs3JFzAlsFQdoEO5ppYFhvf+vevh3Znr6NqRv153VaX+IdlOcANLef4H1/fPbFYJl+YK/ZD3K4lJ/XhCkv8NjZdez2mwffn90B5hY6D3rFTzbJ5S6jGM5Bt7humIMU+ee/eqspB0ZCVCy96fG10sk2ovvO9z5BdhxCTDuQjndfhA6W0vFaofJaHOVZnI42Y5mT0JHXdxrRf3xdYl2pZ1Xe+qPL6RJwMIJ/ueolMl21QQpJm6UxzMsFNJhnYY7uk8fukvmmS9Al30Yt2/Tes/VUdGfs4udZBxFLjfvYwspg/CrBTtkB8ni/29lwT3YexYhNQosPGw96nW/ZAEhd+pSdtyx/eNXrlyEwkjh+MRrEKPCOE9XIYRomo5/gUJcpiMHhWn86DQzXMW/Ar386TLGgT9u6WTrWI4eDgWU+4XLQjVMGDpt9z8EIjCDAEfvxUhwCIGocQzBEjkLz2+fU3xfoVN6tZ+3pl72wPQKcrK3EcOJUc+fTw2jMpwXHa0Lu1sB1imOehXU0Af9vnzqiPG6HLTKBj+Dq6q8sLp/EbmxSvIPtiucMup0HvGM0t0rcOVBPftlTyn/+kPvIunPOis+hkoavohr0IC7wNNOl9Ituh4j4+JyzOvj7nAGhEzsXXIh8hrFDXkdkCU58Xg5XIw980oEom+VnrgPdOl3mgz3P95xVItgjX8UDxHT//gvd0p+kTk2ymef0tG0kOjI/gdOgszKYJqyU3dCO4MH3VrA2D9PU8IuNYcBbGqRJRxhwOIn6u9esiYIe1I26EhLvYdKmOTrgcO/0mdXnWp9z+4wHQ8VnuwoDfegnNvjBfMI47/o3vcQtesYHzM3P9eF+t/gFBj6blBGbtDL97ua7DHqdRzDdxQiQu0M4PbY4HKX/0HVHypstBD4wtOeOEcJp4fShwbQBH5TmNBfGhFMVpgmBZ5pwuXGLX1xbwmAv3n2GLuzGCPa240pZ44iTQZwjmzC0n+skt79Jeb+o6yG1HqgzjWKoYxU3CV2OdxIcpo6j6fyLz51WXn7AtqUebqvGDKM9mc5iOuwM3TAcDCWMKfYfY4qtz8touoTnZngbWN+fGDZMg91OD5n2uns+bZzu/hjIDE1Hfwx46Do/BD+466Pf65wzqb3YJPlX91bshJFg2CViToxxwRE1hEV55eHbuoAIjJ07788HLrgLhNDlj0Tngi2YNli5uMbRQgxQOKc0gxCRP806ppE2QQPSe1xFHh52GBjn9yEvcVYedIBOGMndeapO1W89VpdA4KXgpkFiwKUuARfq5gJMNIq+zjCGa0r5TMB952kHdmVLZ2aasMlJT5pRYCLPtgfazv9ydDaf6RHo8B3om894Tdl0hL719dk0Irw4+OIbVxxZ/vYLbkE9dSBMdPF1YT5hQmefnYjn7jN84AMvs3C/Y78f7rkYQwP5HBBvry19irfXX33bq+WwA99/4fvjyS4huPnwJnPCy1JYYfmqXLf4Lkd+dRCG8O8u3btyI3njeSMnh9VgiWyTw0OZ+fkOmsnL0edxa3Uaig+14whzwHvOLGVhKwIxMHYwRhjZ4fsl3OtpHuh29a7WLd9+DAQ5P6g/KizfBvk6TYtWXwyhjPQ6V46OnAJPjoa4qjwsk8Fe3XvXvq7EoQUfXXhZefVRO5T4RjTOFrzqjduXHxnsKMee4bOp/+cDq8uHbsdecsocB1b1CPJsnqsb7snQj53n7nfVGI767Pzrxw8r333w83Tmlgt4RLjOJUthNzYpmQiND3rFLTJkNrtDYPTs77xXbVU+dlM/cfJahy3Twe+B6V79ry3dghggTAmH/6pObRhJyycPthi000ssXg36QZ82OrWhYb3b0g6hg+GFn7BFG2CUUqWr4nJ0OVxVFu5DVd706apl5PRri8vpnOPN0bFu8uxg5O9cGuHZ4f2ug/b+2nQdPfGgVXoYyq+se+XwD5mz33Y7v1jVm5vbpIzVUlVm7a6b/c9Br3NN5ER1i6Q9rtcp/9e6V6ovywU88AB4X5bD0ckreZbOGUPmE1bo5DjwEFCRhwy+tPsvqAYKkqAFfU9wZjMNKP45bFTHoQu3HRvVAXpYHXJ6WVyOFg+nxdu05ZW3vWmntnSiI/ZL33t25NSXOrYIclg6pgm9459t5uQxn3C90DUEUKiP6NcyaCGGzNSztm6RvHXlImYCmAHcfrwP9uXuXfoc8N5XofMVmmch3i3C518DH/iIORY6i0vK+e19v5R+Gr7pATwWRK9e2TloqezFJikXRrA/3/k6AyN+9OeP0umUZ+32NL9nmDdbd3CEtxQejMlwetPlAXOGRXwfMACYnrqREN/eeIjxZsbDHePWqp8OwQgaOSNPjAoewA0Wp+0g02Txp2obL2LPNKPG8FvJ1M+1AdqigjOLotlW4KnQ5XhzuBxvDpfjzeFyvAYX+VtPKhdvOz4ElvBM4BptAgPl1o5W62bkDWsDtA2muHjW7jjJlWUir8bf541WHc7dt6F0eAYZQJFn0j2Xzs2CdX7SH52fL+zwQNTX7fOVqa8av0F3tuxlLCO90JvblVNhGkI6WeXt0yvKjw56weFrO6a7iRokQWd1gQ1jYHI4MUDkdTeczl6FITDijRXWXmE0J8tIzlZ/HR5a/OC/Q4eQbzKEBynInDbOBTRMHWS7UnTtHnCD03rndKnKS9tIIsuYitGQ0YFPo2avR8RhCigGhDBXBoNEVnaOLgkiecNE2YSWjgYI99cHl4LvLNzHKk5Hyseq4YI/F21Eo2j1Y5oQeuA0Ihi9W4+NAnFoe9v+6TX1yeHb4fQZsGVAJnlvOW1nieiyH4qf3gc57FF3LgjS61z9hDrsYCxL18C00Cvu9dGkyKHqQuy9Tnn1US+S7wvzJk0Ow0Mwuazw8Iwua9p6QF4bmW1oknphVAsfJow+OrIb2WiaI8Mc1NFioEuvczzEtaEFTR1dik+uURfnlx393iXtQyOCdsJIETMBGDhZd4mVBWtDNB8jPTcbmFq5LH8C+PeX7SsfMasLTlr8oFs8trrXObOha8+y2rRAf2Vnh0GveNxPgelUTSC2y/3kmoP99JLTzBmkA3tS6Ka8bvre2K5DgiQYedGRT8idKLyuh1XefKCgni4uq0onkXbUwdeVdScc1paWzqaH8Y2SXyc3xafXdWU00z3wqSPKU3feUtfzRX3PHG3l8P1u59sL2xU7tunfM5oWLeADImhgri63aYc7/sVblF9e+0rvR/N+NefcxQPtHcAuuEGchUwLLd6Yhg95zCe0dMRZaNPyRh8ij/SQyzRhiiOeMNWV9MwnFDpXN+D4y9OjDartkOListfo9N/5QxkksFBHZsnuFxNEQb4YQhnBGbpcMCIKFOioD2WJDBtIqeGVESj8e3ee5qOqtj6atm2gBqNKY54xuc+WJ+TpfbB5bsSYtDPkR/eMC5vNMxRorDw3is/Iq+js+kKKZ7k4kemy1z9Xghni42MfdH4+9sk+Pn873znn4G02+50W3XpG0rYF3NKY73vHq19Z7pbGuKkx/YUfX7OyxAeYNfjBIAgeJPi+LHQd3+0iIb08UGZnCTq6GAj4zPDgyQOTxynvcLq8POenrJThOkFU7tLgxF/o6xuXIXVjp3btGDoNOjDobScc6FpFPyW2uyAwjXUGyu2qEX/fsuFcNBXRePjnONUVA6P1oAEQQ2/qpnitb/wSqGkDw6vt1Z4316Z1uDa61PGm983T3Twobz51JxPx1QivHllHN5TABzBba9unZ3QjtsDqlU/aZtDtPOidr353CJ2tAcJQXnHI88v/+tzq4ECuCYJgREbHcRXqW5ROYM1PgiCOn3II1VCmsoO8UFaQRxwePsohFMPk/Dekq4OBh+UHeYGnCWd1UjrKJAxy0JnjH/JIJxDTSTGCJvrJgAMDGDYAwDQhaBmYSHBRgMTJVENqgieed61GZyUSv0ZH9omuti6sR4yL24PtYGmkzkmbWJzlkZduQpsvN25jK49pyk35eU1IekD7s/nE33vurur3S3d1YNDhcINuZ3H1fGf3Ebv0jHzUFsAbpt8tfmmdrU3p9xzyfBkJ8mZu3DB0vNHr0Za3LV3ccdroI6MsGK+p/ZKARa1c0K11EdVjXIdfunq2aYuNgebRG1aXnz5+Bz/ya+pn+OLjqH15Rj9mC2C73KDb+fawoAjzsWYJD5xMOY2vq/11jjeH0+liLHfadG3LyJWbw7WVV0fXVqbjxzIhNxqrBjmqwYhRgxuxTGdssQwJS0nk3qf6ptesZw6f4nCd4sifwhxdDpfy4bptOTm6tmXE5WJ728X7PUvX+kUBD+7GCoGPfnfuq1izO2Z3nrGN0wJyjmB37pPifLXBEKYJZVV6p7znnD/L7hChsQq+rfAgWFyaVj+O0jJNCJlM0ycT4TDtqDi2lSeiM8Y6pY/ojHH3dLkynKM74jW6pvj0OtTJ1c+VUcEbmZLn/Jak40jQBkPSYAXzbACDuBwUoxoFT7B4+Bw9GTnVJ/JR5ttdXBApX66+OVzNveWzwHbIwqw861MNz9bQ+5PqH11XZYq8mwfl19+xV4lj5zDiY3CDUHER/oFVvbmtx+nDM54ptMCgu6I/6BWP8AZh1Cc3KTGA+DLVt9+9nw9giMOXjmnxt+mblo5ffRicMbQGRnicf4wPeoJT/53rWI6XOMiFn0UgHsiEt6lcdJhxeXPl5uRZXKqz78DopKiDdFbXkUbCYb3gCWqgZNqqgRBOjTGKY3BkVJzQY12dDWhIO4+ns96P8XjFwOXaxekTtV8Ol+NtixtDHiK9nzt5R/H36c4OGDr4+VyfYqCRuF7x2MLM7zcFKzahiMH8k17Y7xY/1ggwh+aA/OmwnYepMtKrMAQJZKrhjKIYGqRdRw9wfeGop4WT6pLyp9coK8F5I2z0qMF5t4MYfDX6inO84MO2MURgMVqT7XQh2CGG0K0X1HWDOkVO02L0sGAZR4Fhp0Z6z2r0k3taExjz95uGZEy6uL7uxcf2oJ4j6JeTl6tvRCflufuY1EPpFmQ76fsO28af2afuI/afEOkNfap4rN/tvGHCrjtjn1YLHLP95s8Y9Do/yTtq9Q2GiNWbd9qy/O5793eOcLzZx3GGt+VpS6cjDDyMS/drq0tbuunrKqNU+OqwCwK+QmcUdRRoAh7YIoY80Li9se3abf3VrZ1+02/TNuX+1w2ry3cd9Lzmb3i40Z/0LxxcPD/32mn13ZmcKbXAwgs3n+9jOozpb8MPX6v60oV76EgBb1//C1PTgGN+mpdek64tbMufo8vhcuW2pcvxtsFBftsy2tLVlIutY/j5e5XSLYUubXW2dEwTWj3b4iwP0zle5hGCpg0d6JUOBvJDR89n+4ueys4Zlfapfrf44RPyO75TslFLLgbD8n63eFz9LNnTugAAE7xJREFUFnoShU+LL0NxMJCfOGa7EqF+8dVgqlP3c8GDKB+jtTr6sfAZedlyM3pOpEvLcrN1yvBm6XI6GxzrSdhWRkSX6pJeozyMsEy5wg+6lHbYtZGRa/uoDCcrwpE/LYf4MWGkS1O5Qf4tp3GBs36GQr/j6/oNTl2K+8xNs9Ocl9yETV7AoFucBwPH6TDThD5I0utIqP+Xnzjc7xiJghJ8aK0PZRlx6qOiD849tOtJF4wUMGoQo880IQwJ04QbKI5+v429Hr69x2hntsHfXrJnueBmSuwT4UPm2n/QZwbd4tGFlcXJsxNdJrdNyyIBN2rQ7XxYzyVzQ3hzRpl35DocPrf5f961X3D40ymNzmx/1oFs8dNMswwP3fRGyqAxTPRqLJ88hIbXl5HDkZ7Q0DSWF+ikkya0OVzUxhjFJDzIz+FSvuW6zumSw3l92M6uXjlawSV0wt8Wl2kzX36Sh7K+edk+5XEvxqcrXaCDW0vV4PlgSL+74qezQw2WxWxNtxCeKM2tOnyzcVQYw065ZuVcic/5PfKZo6Wz4SHJ/zDayTnTU1x67aZfWd60rDrelI4yLT7Hm6OzPEzneFNcek3eHByFNsdvcaPIGoXWloF0W942dG1o0vKncZ0v9+Hrjyr/5uLXlIj2LqwMM6S4L2jEV0aE3c6PEVycbs+cSVu2FtCRoEyHhx6lJUP9XqfEaPC203cRQ1jvcKfTeVzY1lHdVn5beW3p2pY7Cd2GpMsk9cjxtq1bW7pcGe1wWNv3jXfuXb73kBeUx+2weTbYwWdfR4M+gPjwYH7zFy5bZ50VtHQtsNCdO7DfKx62Dl2fNk5ei3vzzluWd5z5cj1un4uVbQQS0wp7zWlzBZd5UFvz1pWR4EVeW1yiTy1vW7o25UJWjk7LgD9O2jKrSzOvvwdZXpSZK3faOKd/Yz0m0aWuDerrgdkLFv5f+JpniNFjcAMbBsKID2k9Xi7Cydmbc/svXY+cSV72FpCTZHrF9/QsM/ULys2nz8P5A1Mcvjny95fvG/mgggM9+Mc0wugeSHRGicjpdMZ37iXAQTYe9riMHG4SXYI81pNQypfoKgIkoQymRTenn8VR50Zcjbwcr/rLECiKp5Bt9MvJa4UbQb+x5dEHiPvcVDf6SW9ZKB+9sV9ed0L8wSIaOL/DwwYJZY0fl7l0ysF85/Rl76CzApe+BfBJvkF3xQ0hOOIcwHQEu4iYdwwLviORsmuP26HEglE8yNkfH05CMXbOF2Nx9DFFuJzMDK8zdlFHaIvLluvKiOqUw2X0y+mfw0WynZxJ6HK8OVzbcnO8k+By5eZwk5TRwPubz65y3+jNPdstcCvn3rb0PXFWwnprAfEL9lac3u92sJXHn2fGN6RCO00ITuGL9t66/MXHDssbwOghhxHJGZIcLmNcIlnIr5OX8ubocmXW4VJ8W3mpHst1nepbV25bujr+9YEfXWcYv3ce8KdmihueXXnW7W6OJD3odRax1GW9dcxZwcvbAv3uil36veKH6gDWKXFwBntHsHMah/yTd3pK+feX7ROmnfT7TAwTf06tvGnTJf6r2nLphxpWPvJzNDlcWnYdr6VrQxPTY8QsLgJft/SadbN8OVxbvlQOZeX4U1rQDKNjvkK4ZLCg/90HPy8T5NBRH/zb8fPtnmnxCXa+3e9uvsvy9sBZaeu9BY7Z/mm/1+91Lu53O4/oaFCdwj4Yog+He6O6vG5HlhDg1IxHb+hndoNMsro/xzsJLqz4F7+l+JFyuLZlWF6Miuw10jmcG0XSh0U4Mq8py/NS75pyfX0NncdRHvN4XQctHdOElmccHHj4s7KQtvKYJlRauGbef/g2JqARnlWZ0dhAnwuCDLqdx3GO32BlcejsLL/1borWrwL9lU9+Wr9XvLvf7fynHKuVBkacLxAPk/oPdeq8bu+tyx984EA/GqSj2y9ARWdLAhTilG/ACb3Nx6gF1w7XJM/yNtHl5FlelpXSgcb/XN38NfI2AhzqtD50Xqpyv3PF68p1ez1Tzu3DmlcGOfRZ1ec04DqPr+6t+OKgW5w4O8Nv/dqcDbL04+aftGW/W1w+6BWP1QZK/Ip5nVpgKxEWlv7f9+kJM95o0GhNChkFtHJyOJvflM7xtsWJXGOQfTkZnDXcpMvhkJfDt8Wlx3VldYR+GR2pVyOchBcvrnHLDTtq0mcKvj58+fBt+2xtprX6PIYAHqa8Abd6vvjJoFu8ZIPseDOlNqwWWD3f2W7QLb6nARHrSE7SdimB21eM/ZVYfJoPgiSjDxmNtHF2t6HJyR5Vj3HLGZevTudR8OOWPS7fKLpNl/ZXnzi8/KsTXly+eSc9rXno8+kCHYPuip/2X9R51obVy2babNAtgM9wLvSK65PV8e6tqqdkxE7l4GQ+Z48/Lv/67a8uH7up75zvdFqnDu8N+Xpj1Hka7bnh1fvX1x1ZfvLY7Usc41b3zAFfDXQI7gGsgd2gO9tMuQ2zBbBkpt9dcdqgWzyWDYxknMu63ECN4QWveUb55Qv3KDFliYIQ9JdZh/y0cZHz3DnWJy4jdr6LL83WoS4tQYscbw6XBAFyvFJOE6/Lm7i+1IVlATLdtk2H6dIkTw8tOHWXP6wE4mT0J5+kZMCDsxNei//vAcxmNszeNdNqo2mB1b0VOw3Eh6LbhuRt63aODPsWCR7UE3d8cvnxNduVP7jq9d4BL0sdzBY7GJMUJ74f8c+FkU2Obtq4pnI10AF9dHonEAZJ6tIOp9Fire9yy2Pdmsqdtn56X0es780D2YrJQws4wsML1j5/fDEz0EG6QbfzvWO2X/H8jaaTzRTdsFsAu0j63eKjg27hDlYIDmYNmMRO5xjHvE75tn3+RKbHv8X0uNH5Tie4daLbNPOboKW36SYe5ll6m2Z+BjYFU1xeMNYJfxOvayfhZZtZecRZ2EIejWHtfcjJqCkDuuXqFuGsPJu2Mp2cz570UjfdTZ8zc+2ivjbYMeh1Hl/d7XwYz+uG3aNm2m2ULTBYOfeKfrfzt+qAxnTDTj2YboZ4S5/3qq38HmN2nuFw2o77tvIsnU2j06fXagi0Lmleem1pp5lOy0mvm8pKadPrJt7J8xBA+9Sx2/tRXni+hj5Tj/fnO/fOzu7bKM3KxqW0bKebL/YcdFd8sRok0SkKjFyb34dXd83RW9YBb9NhChzvaFjfeJ3WBZ2adG7KG6ceqbxUF8pM6YhvA3O8w3DMJ7TlVHF4Ufz6r44qf3LNweXf/vmespUt/9xg5Fd9pvrd4hE34uttXL1opu0m0QL9lZ0dVveKayVQIqNB44R2q+7pp2GAJIwelfacPZ5e/vCq1yfbtWzHMWnjN/SGZxIc1tu1+VXKqHbmIMfmMU3Yrjz46MR3FkGLy8lJynB+yaAXeZROyyAugTneShvANRD4vLwczrXxb2/sl9+6fN/y08fvIJ9jOGnHJ7vDSdPZBJ8jN/LzATdcS3T3+6tXFifPvtGxSZiRjb8SWGfV7xUf7Xc7ixoY0Tc2jJ28ue0uEo+T7y1I/rE7bF7eedbL5Sgj9U2p3y10Kte54S+iwWLaQpMeiRcyDW9aBkYq6OyQyUio+s4sjn69GDeU10Vrc/KqvLky6KN05TL6W9E5x5vD6bTX11fk5ehyuEQXFzXGdrW73/pn5Rl/9kfiNsEzoc+GM2jumWiBexzfvDl4m81+Z+PvNbMabHItsKa74rmD+eLKfq/zsE5ZOHUBTH7y0Nv8Tnn27k8vv3DebuHoLRdthSEQ4+M6o1xbHNL0x0lUFvTGJ0Wc0Dn8RDgjmzJtecQtB8yVm8NNW5eWZWDEh/tauf/2efDPQvKMGBq8XPu9Fas2uU4zq9Cm1wInbPOUJw3mOwv93txX+7LxvNmJHabFSoeRwv9a90pZTK2GDaOSYQ550rShSw0YeS0+J6ctDnJytFY+adrSpbzkT/HTlpfKrys3psP3ZT62sFJG+Hp/2zwDeRrZntkrDt/0esqsRpt8Cwzmn/RCOKoH3WIx58iW6VDGwQ382j2f6aPFflrKKXAjNFPlRrrgwxpNPvimXUZbeaBLadPrUes1Ln+VD6NzfHXt7N2f5gMXukuDo/1qMKPuuZBno9t5sL+y88pNvqPMKrhptwACJv1u57thtEdHt4UYAdhr9RVd8tpnl19926vLH199UPnTv3yD/P7lo4eW2CYle48xHRP/HP1ggJPg6McbUZ7okJSbw4k/MaGrxVld3OjL1lWmonX1HZM3km9laBpt/rMPH1Ji7/edZ72ixLo9LHb/wBHbltgKae+xfodD72MYCfIep/ebI0DZyYFp8x0L81v88abdM2a1e8K0APYYD7qd68QfJB+k0VEBOoaMAkbE4TSak1/2lPKdBzxHdg5gw7z1D8qozkUl6UdMcX7kJwZIp48WhzR4BYpRheHS6d76woVgzPLpgr3d+H70R/q98rSX/6Gf2uJe0rCFHRnj43Ba+aBX3LIw39n9CdMxZhV9YrVAf37uqEG386A6xvm2x9QoPnNQp0Z0jA+nw/eNrzxi2/JHVx+kRksioYhWMjrJyGUCGQX29El+BT9Engs4aGQ3yFJDGq59vtkZITRJeTmc501oa/GmDE+Tw1GeM/JYo/eZE19SvuXlTzWBDL1XcgafBCrcvYMxNIEL3r+A4/RX6LDH/Fv9XnFLv1tchY8RYaqLl+QTqzfMavuEbIFV2/z+Uxe6xVX9budRjiCq0E6dmCYMo4yUb2HlXPmho+fLf/14m2+YxM57GJv4Z4MKNp3SLfd1W13a0qn+WKuHfdv4PjS+A6N+uPq2Ttt+2PWgVzyO+77qxb//1Cfkgz+r9KwFbAvgROoFOZG6eFRHDBwlVKE606v4Or7jdthCjlL6wVUHlrL/eGoBkarzv31gog1vXRAj5cV1DpfjD3Qw8A99+sjyH694XXnfebvJOXs42Pb8V2/V4gPiaH/nuqgJXtXdj9W94ierZ1Nb+/jP0rMW0BbAMeWDbnFdv1s8Xg2E1DnNiU8hplgBhw6JY5U+dNSLyr+5+DXlw391VBw0GeL0jwIspKXPkNfiH6wGDGQ5jKdx+TneCi4jC3JydDmcKxMjup995JDy6+/Yq7zxlJeVVxzyAlmQzJNWtK0xwkN7Wcg08faaOAuZBp2lhVujg0M0rpkdUjDr7bMWGNICOMOt3+3c6TqNfO+B3ypBx5LRhQRLdCQ4Du6Y7efKv9j/OeWtb9m5/O579y///dNHyg+RzX+68oDy2+/er/zWu/aVo/4xjYYRkWmx84txUTZ8aQyINOLEOLopshgxpgl1mjqpvAevfWP5zUv3KW87fefyqje+sMSZjBgF64hMDRMDFdpuS4sbYGfQfOcOrAAYcttn2bMWmLWAbQHZZ9ztfLjf6zzEKZdCBkWcMUyc8IGGUzVLZ3lDwCXwMD/mPfGlTy4vPfBPZckHlt/4IAICBrlAwii4HC0DEQlEJBajV3yf+Z+uPLD82jv2El8dlp+ctdvTZF8tjZ0eSdZQd5m+sg1IZ+vNtsjBlE6vdfRe/HzQLe5cWNk5e7Bd8Rx7T2fpWQvMWmDEFli19Wa/i0NZF7qdYwbd4oLVvc6lg5XF5foBp841/W7n+zrl4tRrEphO46qyYGDW7bW1GJ4fffD1cuL1ozf2ZZQIiM+FYu8rfrjWb6S4kV4lwBLwD19/lIxG7z1n1/ITa7Yr3/OG55dv3/dP5Oiw0//sj0ocHHDM9pt7Ize9OlfrOEz2oNd5bDBf3LG611nAN3Vx7Hx/5e89DfcKpwWNeItn5LMWmLXAuC2A77oO5otD+72O+9A7RyeA4dc2gDIqHXxpx794i/KEl/yBQEw5YajwAx7rFE9/xVPFkMGgvfOAPxXj9v7DtpElO+866HnlW3d/eoklPFbfOJ2O0EK9QDeqzrHsWFZ9nujwzYWVxcn4guC492vGN2uBWQssQQus2nWz3+13507r94pf6ggGozn7w0jHXnO0NwrOyuDIifzpdYpv4k11IW1O5jBcHS/5mM8yiae+AY8Tlge94jv93oqLsaVxCW7bTOSsBWYtMM0WwEEM/ZWd4/o9nFzdeZzfLdHFuG6043acCA5pjBRdYKVK5xZgM7LpRpXK64zJcuCcnlMrN5E36BWP9Ltz3+n3Ojf1u51L+t3OG2bb0Kb5ZM5kzVpgmVsAHRhHKPV7Kz476OKILufQZzSZ14ARDkYx4NQoummo0OmoSeXpiMnLpkxHF/CBLshjGXYHBc9JdLqKvBzO8PqyAl0oI+CgSx8fvu+twA6Mj/d7xSnYfQH/3eyMvWV+OGfFzVpgOVsADnp0dgRQBr3Ot13E0qx/41Rw04CDXgen73x/gBFdr3PxoFccvqo314OrYDnbfVbWrAVmLbABtsCR80/acqFX7I1vH/e7Ky7pS2S5c8mg1zlz9fyKBUwBB925vm7XK35eHxywQQQ3SjTBl3Z8VsZoaV3wXTze7xU/1I/Zd04fvGjuFbM9tRvgQzdTadYCG2MLYGnHQm9u18F858pBt/PjeJkIgwccOfIaU8+QjgMwMa3SARfoB73Og4Nu55v4+BQODFg937lWjfGKSwa9FWfCOK/qFXsvbLf5PPyeG2O7znSetcCsBTayFpCv4m1XPGf1fOcgLPbFesR+t3M1tnrhJyebdOfe1+/OXQGDNegWn8TxTv1u575Br/jbQbf4zqBb/HDQ7fx00MOi4c6PF7rFNwbdzk0Lvc7FC/Odg7AtEMt7NrKmmam7EbbA/wd4d7ZqL5xUagAAAABJRU5ErkJggg==;" vertex="1" parent="7">
                    <mxGeometry x="210" y="90" width="320" height="320" as="geometry"/>
                </mxCell>
                <mxCell id="9" value="Click the Cookie!" style="text;strokeColor=none;align=center;fillColor=none;html=1;verticalAlign=middle;whiteSpace=wrap;rounded=0;" vertex="1" parent="7">
                    <mxGeometry x="340" y="50" width="60" height="30" as="geometry"/>
                </mxCell>
                <mxCell id="10" value="# of cookies = _____" style="whiteSpace=wrap;html=1;" vertex="1" parent="7">
                    <mxGeometry x="310" y="410" width="120" height="60" as="geometry"/>
                </mxCell>
            </root>
        </mxGraphModel>
    </diagram>
</mxfile>